<svg xmlns="http://www.w3.org/2000/svg" xmlns:xlink="http://www.w3.org/1999/xlink" width="88" height="88"
     viewBox="0 0 88 88" fill="none">
    <g style="mix-blend-mode: screen;">
        <path fill-rule="evenodd" clip-rule="evenodd"
              d="M0 44C0 19.6371 19.6042 0 44.0088 0C68.4112 0 88 19.6371 88 44C88 68.3629 68.4112 88 44.0088 88C19.6051 88 0 68.3629 0 44ZM30.7055 20.7055V44.0008C30.7055 51.6369 36.852 57.8008 44.5069 57.8008C52.1618 57.8008 58.2926 51.6367 58.2926 44.0008C58.2926 36.3646 52.1618 30.2007 44.5069 30.2007C39.8064 30.2007 37.9626 33.524 37.9626 33.524V20.705L30.7055 20.7055ZM44.5069 37.4176C48.1565 37.4176 51.083 40.3575 51.083 44.0012C51.083 47.6449 48.1567 50.5848 44.5069 50.5848C40.8574 50.5848 37.9309 47.6449 37.9309 44.0012C37.9309 40.3575 40.8574 37.4176 44.5069 37.4176ZM15.153 30.2058C7.49805 30.2058 1.35609 36.3651 1.35609 44.001C1.35609 51.6371 7.49805 57.7963 15.153 57.7963C19.8535 57.7963 21.6909 54.4819 21.6909 54.4819V57.497H28.9498V44.0008C28.9498 36.3647 22.8079 30.2058 15.153 30.2058ZM15.153 37.4185C18.8025 37.4185 21.7281 40.3576 21.7281 44.0013C21.7281 47.645 18.8025 50.584 15.153 50.584C11.5034 50.584 8.57781 47.645 8.57781 44.0013C8.57781 40.3576 11.5034 37.4185 15.153 37.4185ZM73.2732 30.2058C65.6183 30.2058 59.4764 36.3651 59.4764 44.001C59.4764 51.6371 65.6183 57.7963 73.2732 57.7963C79.8807 57.7963 85.3629 53.2069 86.739 47.0403H79.1074C78.0128 49.1432 75.8204 50.5836 73.2732 50.5836C69.6237 50.5836 66.6981 47.6445 66.6981 44.0008C66.6981 40.3571 69.6237 37.4181 73.2732 37.4181C75.8281 37.4181 78.0318 38.8639 79.123 40.9772H86.7388C85.3683 34.8029 79.8862 30.2058 73.2732 30.2058Z"
              fill="url(#paint0_linear_477_9513)"></path>
    </g>
    <defs>
        <linearGradient id="paint0_linear_477_9513" x1="31.6605" y1="-73.2159" x2="146.947" y2="0.0972629"
                        gradientUnits="userSpaceOnUse">
            <stop stop-color="white"></stop>
            <stop offset="1" stop-color="#0055FF"></stop>
        </linearGradient>
    </defs>
</svg>