<svg xmlns="http://www.w3.org/2000/svg" xmlns:xlink="http://www.w3.org/1999/xlink" width="100" height="78"
     viewBox="0 0 100 78" fill="none">
    <path fill-rule="evenodd" clip-rule="evenodd"
          d="M50.5877 11.0776H53.2925C53.2925 11.0776 54.737 11.0776 54.9336 11.759C54.7076 11.9435 54.399 12.0938 54.0567 12.2604C52.7869 12.8788 51.0536 13.7228 51.3567 17.3801L55.9036 47.9098L70.1105 14.0854C73.0165 6.533 66.9169 0.225627 61.5062 0.032859C61.2535 0.0147295 60.9999 4.26248e-09 60.7373 4.26248e-09C55.881 -0.000141628 50.3158 3.5293 50.5877 11.0776ZM29.0187 14.1789C25.9202 5.74755 32.8827 0.226125 37.5193 0.131653C42.8406 -0.455856 49.513 3.61422 48.3498 12.4311L43.3233 47.9148L29.0187 14.1789ZM14.7113 32.0192C7.56131 27.2633 9.00487 19.1277 12.9711 15.5372C18.5784 10.7953 26.5069 12.4258 29.4051 19.903L43.2356 51.589L14.7113 32.0192ZM56.1016 51.4959L69.5389 20.19C71.738 14.8274 75.5314 12.9473 79.076 12.948C82.0763 12.948 84.9086 14.2876 86.4512 16.0218C90.1308 19.7063 91.1909 27.1604 84.6176 31.8228L56.1016 51.4959ZM81.4245 36.277L54.6445 54.9825H87.6184C94.3834 54.9825 98.7308 48.0075 96.7982 41.6066C95.5038 37.5833 91.6742 34.4251 87.2292 34.4205C85.3582 34.4212 83.374 34.9848 81.4245 36.277ZM44.691 54.9827H12.2037C5.43272 54.9827 0.116103 48.7789 2.24547 41.2258C4.75754 34.6277 11.7159 32.3012 17.9043 36.2772L44.691 54.9827ZM0 68.5203C0 71.706 2.60428 77.5047 12.5483 77.5047C21.7165 77.5047 24.6121 73.2978 24.6121 71.3689H17.5142C17.5142 71.3689 17.1771 73.9173 13.1732 73.9173C9.16673 73.9173 8.08321 70.5732 8.08321 68.6394C8.08321 66.713 9.16673 63.5494 13.1732 63.5494C17.1771 63.5494 17.5142 65.7681 17.5142 65.7681H24.6121C24.6121 63.8369 22.4875 59.6894 12.5483 59.6894C2.60428 59.6894 0 65.865 0 68.5203ZM86.9897 77.5047C77.0484 77.5047 74.4414 71.7059 74.4414 68.5202C74.4414 65.865 77.0485 59.6893 86.9897 59.6893C96.9315 59.6893 99.0538 63.8369 99.0538 65.7681H91.9609C91.9609 65.7681 91.6222 63.5494 87.6173 63.5494C83.6104 63.5494 82.5257 66.713 82.5257 68.6394C82.5257 70.5731 83.6104 73.9173 87.6173 73.9173C91.6222 73.9173 91.9609 71.3688 91.9609 71.3688H99.0538C99.0538 73.2978 96.157 77.5047 86.9897 77.5047ZM44.0065 59.9873V70.7717L35.7461 59.9873H26.4538V77.0689H32.8242V66.1606L40.94 77.0689H50.3773V59.9873H44.0065ZM64.4285 73.0105V72.988C65.5619 72.988 66.4779 72.2943 66.4779 71.4386C66.4779 70.5809 65.5619 69.8843 64.4285 69.8843V69.8741H59.1205V73.0105H64.4285ZM64.2838 63.3095H59.1693V65.8657H64.2838V65.858C65.1503 65.858 65.853 65.2929 65.853 64.5885C65.853 63.8869 65.1503 63.3168 64.2838 63.3168V63.3095ZM73.2263 64.0333C73.2263 66.6414 70.8015 67.9877 69.6418 67.9877C69.6418 67.9877 73.8399 68.6668 73.8399 71.8998C73.8399 75.1328 71.3781 77.0688 65.2497 77.0688H52.5078V59.9873H65.2497C66.3106 59.9873 73.2263 60.3194 73.2263 64.0333Z"
          fill="url(#paint0_linear_477_9487)"></path>
    <defs>
        <linearGradient id="paint0_linear_477_9487" x1="35.6374" y1="-64.4839" x2="145.389" y2="24.7143"
                        gradientUnits="userSpaceOnUse">
            <stop stop-color="white"></stop>
            <stop offset="1" stop-color="#0055FF"></stop>
        </linearGradient>
    </defs>
</svg>