<svg xmlns="http://www.w3.org/2000/svg" xmlns:xlink="http://www.w3.org/1999/xlink" width="142" height="37"
     viewBox="0 0 142 37" fill="none">
    <path fill-rule="evenodd" clip-rule="evenodd"
          d="M80.3677 0C76.727 0.625923 73.0984 1.32196 69.4821 2.07489C69.4069 2.43358 69.3145 2.89083 69.5482 3.19973C69.8327 3.33749 70.1537 3.40833 70.4749 3.47923C71.0209 3.59972 71.5677 3.7204 71.938 4.17011C72.6016 5.07547 72.8149 6.22875 72.8444 7.33123C73.1171 15.461 73.0053 23.5945 72.8934 31.726V31.7262V31.7264V31.7265V31.7272L72.8934 31.729L72.8934 31.7307L72.8934 31.7324L72.8933 31.7341C72.8744 33.1127 72.8554 34.4912 72.8383 35.8697C74.1308 36.1786 75.4426 36.3991 76.7534 36.6145C76.8694 36.6322 76.9855 36.6501 77.1015 36.6681L77.1017 36.6681C77.9127 36.7936 78.7254 36.9193 79.5467 36.9549C80.9347 37.0179 82.3247 37.0128 83.7137 36.9528C84.9168 36.901 86.1046 36.6409 87.2467 36.2649C89.7972 35.4287 92.0834 33.7592 93.5588 31.5065C94.6257 29.9285 95.2537 28.0974 95.6164 26.238C95.9934 24.4496 95.9436 22.6074 95.8247 20.7947C95.7434 19.366 95.3482 17.9719 94.7954 16.6591C93.9886 14.7803 92.7022 13.0722 90.983 11.9413C89.5868 11.0339 87.9326 10.4436 86.252 10.4974C84.9524 10.4964 83.6345 10.594 82.3897 10.9882C81.894 11.1396 81.4222 11.3516 80.9505 11.5634L80.9504 11.5635C80.7637 11.6473 80.5771 11.7312 80.389 11.8113L80.3835 11.6216V11.6213C80.3605 10.8321 80.3375 10.0429 80.3799 9.25371C80.3775 7.74726 80.3933 6.24152 80.4091 4.73586V4.73566V4.73546V4.73526V4.73506C80.42 3.70205 80.4308 2.66908 80.4358 1.63594C80.4238 1.43457 80.4256 1.23252 80.4274 1.03059C80.4306 0.685333 80.4337 0.340441 80.3677 0ZM80.3666 15.643V15.6422V15.6415C80.3726 15.055 80.3786 14.4685 80.3839 13.8821C81.4062 13.5305 82.5137 13.3649 83.5867 13.5478C85.057 13.9715 86.1544 15.1918 86.7824 16.5473C87.5465 18.2056 87.958 20.0285 87.9977 21.8545C88.0657 23.718 88.0576 25.6009 87.6867 27.436C87.3402 29.2101 86.8149 30.9832 85.8537 32.5287C85.2572 33.4676 84.4524 34.3496 83.3764 34.7245C82.5696 35.0141 81.6917 34.9918 80.8564 34.8597C80.5529 34.8326 80.5392 34.5094 80.5287 34.2616C80.5273 34.2298 80.526 34.1992 80.5242 34.1707C80.4073 31.0073 80.3795 27.8421 80.3517 24.6777V24.677L80.3474 24.1875C80.3086 21.3391 80.3376 18.4907 80.3666 15.643ZM1.26691 0.653416C0.843774 0.661362 0.420316 0.669314 0 0.721254C0.0233705 1.28113 0.0396283 1.84101 0.0508055 2.40088C0.239751 2.42694 0.431978 2.4491 0.625497 2.4714L0.625516 2.4714L0.625534 2.47141L0.625552 2.47141L0.62557 2.47141C1.5716 2.58046 2.54848 2.69306 3.32369 3.28185C4.10305 3.92708 4.44344 4.93912 4.64463 5.89833C4.91281 7.28223 4.9701 8.6947 5.0271 10.0998V10.0999L5.02974 10.165C5.12237 12.9463 5.11984 15.7287 5.1173 18.511C5.11647 19.4216 5.11564 20.3321 5.11814 21.2426C5.10896 21.782 5.10204 22.3216 5.09513 22.8612V22.8613C5.0684 24.9481 5.04166 27.0353 4.88342 29.1174C4.79705 30.1122 4.6995 31.1161 4.4089 32.0753C4.17824 32.8262 3.74843 33.5568 3.0717 33.9856C2.55077 34.2916 1.96137 34.3981 1.3721 34.5047H1.37207C1.05331 34.5623 0.734591 34.6199 0.426766 34.7091C0.411654 34.7148 0.395973 34.7205 0.379965 34.7262C0.238815 34.7773 0.0721902 34.8376 0.0457246 35.0027C-0.0382819 35.4189 0.0135145 35.8461 0.0642147 36.2642L0.0721437 36.3298C2.52573 36.3956 4.98129 36.3914 7.43675 36.3873C8.50887 36.3855 9.58097 36.3837 10.6529 36.3877C11.387 36.3851 12.1213 36.3864 12.8556 36.3877C14.7374 36.391 16.6194 36.3942 18.4993 36.3328C18.6232 35.842 18.6934 35.2679 18.4424 34.8087C17.9938 34.6655 17.5275 34.5932 17.061 34.5208C16.5344 34.4391 16.0075 34.3573 15.5058 34.1736C14.8149 33.8891 14.3353 33.2601 14.0569 32.5864C13.5432 31.3733 13.4395 30.0427 13.3383 28.7436L13.3314 28.6551C13.1322 25.6637 13.0763 22.6662 13.0946 19.6697C13.4922 19.6886 13.8906 19.7014 14.289 19.7142C15.4066 19.7501 16.5249 19.7859 17.6305 19.9582C18.2412 20.0426 18.7757 20.4013 19.1831 20.8494C20.1301 21.9031 20.4776 23.3155 20.7906 24.6588C21.076 24.6751 21.3614 24.6838 21.6466 24.6924H21.6467C21.9119 24.7005 22.177 24.7086 22.4418 24.7228C22.4428 20.6502 22.4428 16.5776 22.4418 12.5061C22.2889 12.5109 22.136 12.5149 21.9832 12.5189L21.9831 12.5189C21.5853 12.5293 21.1877 12.5398 20.7906 12.564L20.7336 12.7945C20.4784 13.8295 20.2179 14.8856 19.6221 15.7841C19.0968 16.6041 18.2259 17.2391 17.2393 17.3285C15.8615 17.4606 14.4765 17.4992 13.0936 17.4881C13.0814 15.0819 13.1058 12.6758 13.1505 10.2696C13.1715 9.62886 13.1858 8.98761 13.2001 8.34628L13.2001 8.34621L13.2001 8.34614L13.2001 8.34606L13.2001 8.34599V8.34594C13.2364 6.71948 13.2727 5.09253 13.4177 3.47186C14.5577 3.46195 15.6972 3.46405 16.8369 3.46615L16.8374 3.46615C17.2172 3.46684 17.5971 3.46754 17.977 3.4678C18.1958 3.4768 18.4155 3.48205 18.6356 3.48731C19.4834 3.50756 20.3355 3.52792 21.1544 3.76348C22.2873 4.11404 23.3299 4.76537 24.1275 5.64532C25.1772 6.7793 25.8752 8.18356 26.4564 9.60103C26.53 9.77161 26.5946 9.94641 26.6593 10.1212C26.7848 10.4609 26.9105 10.8007 27.1017 11.11C27.2012 11.2969 27.4421 11.2847 27.6209 11.2522C27.9136 11.1921 28.199 11.1019 28.4841 11.0118L28.4842 11.0118L28.4842 11.0117L28.4842 11.0117L28.4842 11.0117L28.4843 11.0117C28.6375 10.9633 28.7907 10.9149 28.9449 10.8712C28.949 9.87389 28.9328 8.87695 28.9166 7.88015C28.9047 7.14938 28.8929 6.41869 28.889 5.688C28.8633 5.09195 28.8572 4.49447 28.8511 3.89696C28.8401 2.81989 28.8292 1.7427 28.703 0.673497C27.7791 0.670878 26.8551 0.671318 25.9312 0.671758C23.9878 0.672684 22.0445 0.67361 20.1017 0.646062L13.9381 0.646288H13.9372H13.9371H13.937H13.9368C9.82847 0.646514 5.72023 0.64674 1.61155 0.646062C1.49674 0.649101 1.38184 0.651258 1.26691 0.653416ZM67.0715 10.1749C68.1526 9.99814 69.2826 10.0337 70.3332 10.3558L70.3722 10.3698C70.6861 10.4826 71.0289 10.6058 71.2162 10.8984C71.2034 11.1657 71.1106 11.4175 71.018 11.6686L71.018 11.6687L71.018 11.6687L71.0179 11.6688C70.9782 11.7765 70.9385 11.8841 70.9053 11.9928C70.1879 13.9721 69.4644 15.9515 68.6363 17.8882C68.2458 17.7814 67.8792 17.6133 67.5125 17.4452C67.2027 17.3032 66.8929 17.1612 66.5685 17.056C65.082 16.5205 63.3779 16.5581 61.9523 17.2603C61.6729 17.4066 61.3894 17.5763 61.1994 17.8344C61.092 18.0476 61.0799 18.2885 61.068 18.5247L61.068 18.5249L61.0679 18.5251C61.0651 18.5815 61.0623 18.6376 61.0582 18.693C60.9423 22.6243 60.9362 26.5617 61.1618 30.489C61.1729 30.6216 61.1829 30.7549 61.193 30.8885C61.2575 31.7477 61.3232 32.6221 61.681 33.4144C61.9239 33.9773 62.4543 34.4051 63.063 34.4996C63.8322 34.6347 64.6085 34.7485 65.3898 34.7699C65.4367 35.2219 65.4147 35.6753 65.3927 36.1277C65.3889 36.2052 65.3851 36.2827 65.3817 36.3601C63.7866 36.3659 62.1912 36.3651 60.5958 36.3643H60.5957H60.5957H60.5956C59.6981 36.3639 58.8006 36.3634 57.9032 36.3641C56.5131 36.3987 55.1221 36.4007 53.732 36.3641C53.4012 36.3619 53.0703 36.3631 52.7394 36.3644C51.8792 36.3677 51.019 36.371 50.1604 36.3123C50.084 35.9317 50.1023 35.5449 50.1205 35.1597L50.1205 35.1593L50.1205 35.159C50.1258 35.0478 50.131 34.9366 50.134 34.8257C50.3717 34.7617 50.6183 34.7185 50.8654 34.6752C51.4133 34.5792 51.9635 34.4828 52.4243 34.1571C53.1803 33.5912 53.4048 32.5974 53.4719 31.7043C53.658 29.4226 53.6599 27.1312 53.6618 24.8434L53.6619 24.6982C53.6985 23.7197 53.6985 22.7391 53.6619 21.7606C53.6629 20.0922 53.6579 18.4197 53.5044 16.7573C53.4099 15.8123 53.2484 14.7271 52.4233 14.1286C52.0142 13.8881 51.5514 13.8081 51.0885 13.728C50.7868 13.6759 50.485 13.6237 50.198 13.5271C50.0404 13.3166 50.0685 13.0183 50.0937 12.7513C50.0985 12.6999 50.1033 12.6497 50.1066 12.6014C50.1 12.3528 50.352 12.2962 50.5497 12.2517C50.5678 12.2476 50.5855 12.2437 50.6024 12.2397C53.2524 11.6717 55.9106 11.1433 58.5697 10.623C58.8589 10.5722 59.1472 10.5147 59.4355 10.4572C60.0406 10.3366 60.6458 10.2158 61.2604 10.1567C61.2055 11.9379 61.1425 13.7191 61.0714 15.4994C61.8345 14.09 62.7033 12.6868 63.9785 11.6808C64.8838 10.9675 65.9335 10.3995 67.0715 10.1749ZM43.5184 11.2374C41.1468 10.1837 38.4694 9.91239 35.9098 10.2508C34.7392 10.4113 33.5849 10.7111 32.4977 11.1754C30.0143 12.2312 27.9902 14.2329 26.7343 16.6045C25.7721 18.402 25.3301 20.4342 25.1949 22.4552C25.0242 25.2607 25.4053 28.1444 26.6033 30.706C27.6763 33.0106 29.5855 34.9199 31.9053 35.9654C33.3634 36.6208 34.9577 36.9917 36.5591 36.9887C36.7028 36.9896 36.8467 36.9911 36.9909 36.9927L36.9925 36.9927C38.1841 37.0052 39.3881 37.0178 40.5524 36.7387C43.0602 36.1849 45.4145 34.8538 47.0718 32.8765C48.3968 31.3208 49.2798 29.4227 49.7726 27.4484C50.0632 26.3561 50.1221 25.2191 50.1648 24.0952C50.306 21.2461 49.7726 18.3197 48.4059 15.7997C47.3248 13.8051 45.5954 12.161 43.5184 11.2374ZM35.3174 12.9882C35.7218 12.5756 36.2411 12.2657 36.8141 12.1621C37.6656 12.0056 38.6076 12.1743 39.2589 12.7727C40.7272 14.0307 41.4059 15.9379 41.787 17.7781C42.3164 20.3864 42.3214 23.0629 42.2656 25.7129C42.165 27.9727 42.0115 30.2935 41.1357 32.407C40.7373 33.3754 40.0718 34.2716 39.138 34.7756C38.1391 35.2643 36.8619 35.1292 36.0114 34.4016C34.9669 33.5247 34.4009 32.2272 33.9914 30.957C33.4488 29.1941 33.1531 27.3549 33.1074 25.5117C33.1024 25.273 33.0961 25.0344 33.0898 24.7957V24.7955C33.0666 23.9176 33.0435 23.0396 33.085 22.1616C33.0972 19.9627 33.2639 17.7405 33.906 15.626C34.2109 14.6749 34.6122 13.7167 35.3174 12.9882ZM102.609 12.7155C105.382 10.5014 109.146 9.71389 112.611 10.3185C114.523 10.6396 116.32 11.6079 117.619 13.0498C119.02 14.5689 119.818 16.5493 120.23 18.552C120.476 19.8567 120.663 21.1898 120.569 22.5199C118.677 22.5495 116.785 22.5473 114.892 22.5451C114.187 22.5443 113.481 22.5435 112.775 22.5443C111.203 22.576 109.631 22.5725 108.059 22.5689C107.215 22.567 106.371 22.5651 105.527 22.5687C105.531 24.2554 105.709 25.9625 106.286 27.5568C106.638 28.5109 107.064 29.467 107.756 30.2271C108.621 31.2137 109.659 32.0988 110.906 32.555C112.149 33.0265 113.502 33.0783 114.817 33.0204C115.969 32.9543 117.118 32.6566 118.121 32.0764C118.286 31.9877 118.445 31.8876 118.605 31.7875C118.889 31.6089 119.173 31.4303 119.49 31.3164C119.802 31.4088 119.982 31.7157 120.134 31.9819C120.3 32.2974 120.067 32.5811 119.863 32.8292C119.82 32.8824 119.777 32.9339 119.741 32.9838C118.591 34.2448 117.203 35.3219 115.617 35.9752C114.661 36.3786 113.663 36.6906 112.639 36.8643C111.673 37.0106 110.691 37.0066 109.717 36.9924C107.177 36.971 104.66 36.0718 102.65 34.5263C100.393 32.7897 98.887 30.2007 98.2235 27.4541C97.9749 26.5787 97.9339 25.6662 97.8933 24.7618L97.8861 24.6029C97.7998 22.7333 97.9065 20.8271 98.4856 19.0357C99.2233 16.599 100.587 14.2996 102.609 12.7155ZM108.339 12.6372C107.36 13.4013 106.828 14.579 106.419 15.7201C105.924 17.2351 105.612 18.8182 105.554 20.4135L106.375 20.3952L106.375 20.3952C108.553 20.3469 110.732 20.2985 112.91 20.2245C112.831 18.236 112.734 16.2058 112.071 14.3108C111.784 13.5609 111.392 12.7805 110.681 12.3537C109.941 11.9209 108.982 12.121 108.339 12.6372ZM134.165 10.1905C131.865 9.98828 129.475 10.1742 127.34 11.1111C125.673 11.862 124.247 13.1535 123.359 14.7538C122.379 16.533 122.255 18.6943 122.755 20.6381C123.183 22.2995 124.397 23.6549 125.816 24.5633C126.817 25.1656 127.9 25.5939 128.983 26.0225C129.81 26.3495 130.638 26.6766 131.429 27.0813C132.271 27.5141 133.142 27.9907 133.716 28.768C134.283 29.5321 134.341 30.5482 134.183 31.4556C133.917 33.0712 132.381 34.317 130.764 34.3576C129.862 34.3983 128.925 34.3464 128.091 33.9685C127.098 33.5559 126.28 32.8121 125.629 31.9708C124.626 30.662 123.969 29.1338 123.371 27.6086C122.895 27.6076 122.414 27.6747 121.992 27.9063C121.999 29.5288 122.044 31.1501 122.088 32.7714C122.113 33.6825 122.137 34.5935 122.156 35.5048C123.137 35.9616 124.2 36.1984 125.253 36.4329L125.256 36.4335C126.377 36.6662 127.506 36.8928 128.652 36.9629C129.921 36.9954 131.191 36.9688 132.46 36.9421L132.582 36.9396C133.367 36.9253 134.137 36.7587 134.886 36.5321C136.833 35.9824 138.704 34.9084 139.88 33.2226C140.712 32.0043 141.299 30.5655 141.306 29.0739C141.347 28.0466 141.368 26.9929 141.064 26.0001C140.737 24.9545 140.141 23.9892 139.325 23.2566C137.986 22.0621 136.359 21.3629 134.731 20.663C133.399 20.0906 132.066 19.5177 130.888 18.673C130.108 18.0948 129.347 17.2992 129.279 16.278C129.225 15.4936 129.288 14.6624 129.672 13.9602C130.128 13.1758 130.874 12.5174 131.78 12.3304C132.862 12.1069 133.997 12.3772 134.959 12.8862C136.24 13.5884 137.081 14.8514 137.7 16.1368C137.908 16.5584 138.08 16.995 138.252 17.4316C138.345 17.6684 138.439 17.9051 138.538 18.1395C138.551 18.1644 138.564 18.1912 138.577 18.219C138.665 18.3975 138.772 18.6137 138.996 18.5856C139.254 18.5659 139.496 18.4713 139.737 18.3769C139.844 18.3348 139.951 18.2928 140.06 18.2574L140.052 17.8554C140.013 15.7263 139.974 13.5957 139.878 11.4677C138.075 10.6843 136.11 10.3683 134.165 10.1905Z"
          fill="url(#paint0_linear_477_9475)"></path>
    <defs>
        <linearGradient id="paint0_linear_477_9475" x1="50.8473" y1="-30.784" x2="88.5311" y2="60.7514"
                        gradientUnits="userSpaceOnUse">
            <stop stop-color="white"></stop>
            <stop offset="1" stop-color="#0055FF"></stop>
        </linearGradient>
    </defs>
</svg>