<svg xmlns="http://www.w3.org/2000/svg" xmlns:xlink="http://www.w3.org/1999/xlink" width="172" height="20"
     viewBox="0 0 172 20" fill="none">
    <g style="mix-blend-mode: screen;">
        <path fill-rule="evenodd" clip-rule="evenodd"
              d="M105.82 11.7814C105.82 4.39429 109.882 0 116.675 0C122.115 0 125.345 3.06413 125.321 8.2185C125.321 15.6057 121.26 19.9999 114.466 19.9999C109.051 19.9999 105.82 16.9121 105.82 11.7814ZM112.281 11.924C112.281 13.8717 113.231 15.0356 114.846 15.0356C117.388 15.0356 118.196 12.7078 118.671 10.2137C118.813 9.47741 118.884 8.83608 118.884 8.09974C118.884 6.152 117.934 4.98811 116.319 4.98811C113.778 4.98811 112.97 7.29214 112.495 9.80994C112.352 10.5463 112.281 11.1876 112.281 11.924ZM33.3508 11.0688L35.251 0.403752V0.380005H41.4981L39.6928 10.3087C39.5028 11.2826 39.4078 12.0664 39.4078 12.7078C39.4078 14.3705 40.1441 15.1781 41.6643 15.1781C43.9921 15.1781 44.3959 13.5391 44.966 10.4037L46.7474 0.380005H52.9945L50.9042 12.3277C49.9303 17.9096 47.2463 19.9761 41.023 19.9761C38.0539 19.9761 33.1133 19.121 33.1133 13.4678C33.1133 12.7078 33.1845 11.9002 33.3508 11.0688ZM28.3628 19.5962H22.1158L23.3747 12.4228H17.959L16.7001 19.5962H10.4531L13.8023 0.427612H20.0493L18.8141 7.2922H24.2298L25.465 0.427612H31.712L28.3628 19.5962ZM86.0078 19.5965H92.2548L93.1337 14.6559H96.079C101.518 14.6559 104.535 11.7106 104.535 6.3424C104.535 2.56569 101.922 0.404175 97.3379 0.404175H89.357L86.0078 19.5965ZM95.7465 9.92909H93.9413L94.7726 5.41604H96.4591C97.8368 5.41604 98.5731 6.10487 98.5731 7.36378C98.5731 8.95522 97.5042 9.92909 95.7465 9.92909ZM147.054 19.5962H153.301L155.772 5.55824H160.475L161.377 0.427612H145.391L144.489 5.55824H149.477L147.054 19.5962ZM133.919 5.7007C133.919 6.62706 134.726 6.88834 136.698 7.50592C140.047 8.52729 141.686 10.4275 141.662 13.3254C141.662 19.1211 136.294 19.9762 133.087 19.9762C128.883 19.9762 126.199 18.361 125.605 15.5106L131.045 14.038C131.401 15.0356 132.446 15.6056 133.42 15.6056C134.489 15.6056 135.106 15.0831 135.106 14.2517C135.106 13.2216 134.045 12.9299 133.105 12.6715L133.064 12.6603C129.453 11.6627 127.791 9.73868 127.791 6.6033C127.791 5.05936 128.384 0 135.938 0C139.952 0 142.28 1.37766 142.921 4.08549L137.41 5.58193C137.125 4.84559 136.389 4.34678 135.51 4.34678C134.323 4.34678 133.919 5.08312 133.919 5.7007ZM6.9596 19.5962L10.3325 0.427612H0V19.5962H6.9596ZM160.711 19.5962L164.06 0.427612H171.043V19.5962H160.711ZM60.4512 13.9434H65.7006L66.5557 9.12154H61.3063L61.9001 5.5586H69.2397L70.1423 0.404227H56.5557L53.2065 19.5966H59.4536L60.4512 13.9434ZM82.0917 13.9433H76.8185L75.8447 19.5965H69.5977L72.9468 0.404175H86.5335L85.6309 5.55855H78.2912L77.6974 9.12149H82.9468L82.0917 13.9433Z"
              fill="url(#paint0_linear_477_9518)"></path>
    </g>
    <defs>
        <linearGradient id="paint0_linear_477_9518" x1="61.5378" y1="-16.6399" x2="71.8295" y2="39.332"
                        gradientUnits="userSpaceOnUse">
            <stop stop-color="white"></stop>
            <stop offset="1" stop-color="#0055FF"></stop>
        </linearGradient>
    </defs>
</svg>