<svg xmlns="http://www.w3.org/2000/svg" xmlns:xlink="http://www.w3.org/1999/xlink" width="154" height="25"
     viewBox="0 0 154 25" fill="none">
    <path fill-rule="evenodd" clip-rule="evenodd"
          d="M21.0611 19.3251L21.0572 19.3304L21.0603 19.3243L21.0611 19.3251ZM23.9678 22.2249L21.0611 19.3251C22.5339 17.3342 23.3273 14.9224 23.3241 12.4459C23.3241 6.03637 18.0881 0.818848 11.6617 0.818848C5.23523 0.818848 0 6.03945 0 12.4459C0 18.8523 5.22907 24.0729 11.6617 24.0729C14.0955 24.077 16.469 23.3154 18.4461 21.8961L21.3721 24.8105L23.9678 22.2249ZM14.1072 12.4027L18.4192 16.7001H18.4215C19.2278 15.4292 19.6552 13.9548 19.6535 12.4497C19.6535 8.05685 16.073 4.47943 11.6632 4.47943C7.2534 4.47943 3.66674 8.05377 3.66674 12.4505C3.66674 16.8472 7.25032 20.4207 11.6601 20.4207C13.1205 20.4224 14.5532 20.0229 15.8019 19.2657L11.5146 14.9922L14.1072 12.4027ZM128.575 5.09167V1.3949H110.95V5.09167H117.884V23.584H121.639V5.09167H128.575ZM70.5944 1.3949H66.0853L57.5113 23.584H61.4475L63.0538 19.2612H73.6282L75.2329 23.584H79.1706L70.5944 1.3949ZM64.4837 15.8024L68.3437 5.78621L72.1937 15.8024H64.4837ZM141.562 19.8372L153.999 5.09171V1.4319H137.53V5.09171H149.145L136.665 19.6416V23.584H153.999V19.8372H141.562ZM50.2425 1.3949V15.432C50.2425 20.1914 46.3648 24.0614 41.5939 24.0614C36.823 24.0614 32.9414 20.1898 32.9414 15.432V1.3949H36.6944V15.432C36.612 18.1724 38.8465 20.4008 41.5954 20.4008C44.3443 20.4008 46.5727 18.1724 46.5188 15.432V1.3949H50.2425ZM101.88 13.2358C101.121 14.4535 100.036 15.4348 98.7486 16.0688L98.7494 16.0696L104.773 22.1526L102.163 24.7244L94.4196 16.9012H91.0162V23.5832H87.2617V1.3949H95.5007C99.6849 1.47729 103.047 5.11015 103.047 9.17729C103.044 10.6124 102.64 12.0181 101.88 13.2358ZM91.0162 13.2398H95.2251H95.2258C97.515 13.2398 99.3784 11.4195 99.3784 9.17806C99.3784 6.93659 97.515 5.11477 95.2258 5.11477H91.0162V13.2398Z"
          fill="url(#paint0_linear_477_9502)"></path>
    <defs>
        <linearGradient id="paint0_linear_477_9502" x1="55.4055" y1="-19.1422" x2="71.4479" y2="46.3409"
                        gradientUnits="userSpaceOnUse">
            <stop stop-color="white"></stop>
            <stop offset="1" stop-color="#0055FF"></stop>
        </linearGradient>
    </defs>
</svg>