<svg xmlns="http://www.w3.org/2000/svg" xmlns:xlink="http://www.w3.org/1999/xlink" width="152" height="30"
     viewBox="0 0 152 30" fill="none">
    <path d="M127.562 4.66007V25.4049H137.784C140.64 25.4049 142.294 24.9539 143.496 23.9016C144.999 22.5487 145.751 20.1435 145.751 15.0325C145.751 9.92143 144.999 7.51624 143.496 6.16331C142.294 5.11104 140.64 4.66007 137.784 4.66007H127.562ZM141.542 15.0325C141.542 19.5422 141.241 20.5945 140.339 21.1958C139.738 21.6468 138.986 21.7971 137.483 21.7971H131.771V8.11753H137.483C138.986 8.11753 139.738 8.11753 140.339 8.71883C141.241 9.47046 141.542 10.5227 141.542 15.0325ZM151.012 29.9904H121.022V0H151.012V29.9904ZM96.5202 8.11753V4.66007H114.259V11.2744H110.499V8.11753H103.284V13.0782H108.996V16.3854H103.284V21.9474H110.651V18.3396H114.408V25.4049H96.5214V21.9474H99.3764V8.11753H96.5202ZM80.4355 19.9932C80.4355 22.2481 80.5846 23.9016 80.8853 25.2546H84.9452C84.7937 24.2023 84.6446 22.2481 84.6446 19.6925C84.4931 16.686 83.5911 16.2351 81.4866 15.7841C83.8918 15.3331 84.9452 14.2808 84.9452 10.5227C84.9452 7.51624 84.4931 6.31364 83.5911 5.56201C82.9898 4.96072 81.9387 4.66007 80.284 4.66007H67.6567V25.4049H71.8658V17.2873H77.7297C78.9323 17.2873 79.382 17.4377 79.8342 17.7383C80.2864 18.039 80.4355 18.4899 80.4355 19.9932ZM71.8658 13.9802V8.26786H78.6316C79.5336 8.26786 79.8342 8.41818 79.9833 8.56851C80.284 8.86916 80.5846 9.32013 80.5846 11.124C80.5846 12.9279 80.284 13.5292 79.9833 13.8299C79.8342 13.9802 79.5336 14.1305 78.6316 14.1305L71.8658 13.9802ZM90.9582 29.9904H60.8933V0H90.8825V29.9904H90.9582ZM53.0764 21.9474V25.4049H38.7943V21.9474H43.9054V8.11753H38.7943V4.66007H53.0752V8.11753H47.9642V21.9474H53.0764ZM28.9487 4.66007H25.0402L22.1841 21.0455L18.8769 5.86266C18.7266 4.81039 18.2756 4.66007 17.3737 4.66007H15.2691C14.3672 4.66007 13.9162 4.96072 13.7659 5.86266L10.4587 21.0455L7.60257 4.66007H3.39348L7.45224 24.3526C7.60257 25.2546 7.90322 25.4049 8.95549 25.4049H11.8117C12.7136 25.4049 13.0143 25.2546 13.3149 24.3526L16.4717 10.0718L19.6285 24.3526C19.7789 25.2546 20.0795 25.4049 21.1318 25.4049H23.8376C24.7396 25.4049 25.1906 25.2546 25.3409 24.3526L28.9487 4.66007ZM31.0532 29.9904H0.988281V0H30.9787V29.9904H31.0532Z"
          fill="url(#paint0_linear_477_9462)"></path>
    <defs>
        <linearGradient id="paint0_linear_477_9462" x1="54.9637" y1="-24.952" x2="79.7868" y2="54.0137"
                        gradientUnits="userSpaceOnUse">
            <stop stop-color="white"></stop>
            <stop offset="1" stop-color="#0055FF"></stop>
        </linearGradient>
    </defs>
</svg>