<svg xmlns="http://www.w3.org/2000/svg" xmlns:xlink="http://www.w3.org/1999/xlink" width="76" height="82"
     viewBox="0 0 76 82" fill="none">
    <g style="mix-blend-mode: screen;">
        <path d="M30.7109 0H30.2695C20.5586 5.97998 9.94922 10.3501 0 15.9302V55.7598C0.253906 55.0142 0.746094 54.4756 1.33203 54.0273C1.75 53.7065 2.21484 53.4316 2.67578 53.1597C3.01172 52.9604 3.34766 52.7627 3.66016 52.5498C12.8281 47.4502 21.9102 42.21 31.0312 37.0498C31.0117 35.5386 31.0039 34.0273 31 32.5156C30.9922 29.5713 31.0078 26.627 31.0234 23.6826V23.4731C31.0625 15.6431 31.1016 7.81348 30.7109 0Z"
              fill="url(#paint0_linear_477_8732)"></path>
        <path d="M43.5547 18.8682L38.6094 21.7598C38.6094 28.3398 38.6172 34.9102 38.6094 41.48C36.2188 42.7798 33.8281 44.0801 31.4492 45.3999C29.3477 46.5933 27.2266 47.7427 25.1016 48.8921L21.8711 50.6499V68.0498L24.0742 66.8149C26.5508 65.4219 29.0312 64.0278 31.5195 62.6699C34.6172 60.9756 37.6953 59.2515 40.7695 57.5186L44.6836 55.3076C47.3945 53.7734 50.1055 52.2393 52.8281 50.7202L52.8359 29.8252C52.8359 24.3843 52.832 18.9434 52.8203 13.5C49.7305 15.2407 46.6719 17.0371 43.6133 18.833L43.5547 18.8682Z"
              fill="url(#paint1_linear_477_8732)"></path>
        <path d="M60.8125 35.5796L64.9648 33.1328C66.5312 32.2075 68.0977 31.2822 69.668 30.3647C71.4414 29.3296 73.2188 28.3042 75.0117 27.2998V42.4829C75.0156 49.8472 75.0195 57.2134 75 64.5796C64.9023 70.46 54.3711 75.6396 44.5703 82H44.1992C43.8789 77.8252 43.9023 73.6348 43.9297 69.4478C43.9414 67.7876 43.9531 66.1279 43.9414 64.4697C46.7578 62.9497 49.5625 61.4219 52.3711 59.8945C55.1797 58.3672 57.9844 56.8398 60.8008 55.3198C60.8164 50.2021 60.8125 45.0845 60.8125 39.9668V35.5796Z"
              fill="url(#paint2_linear_477_8732)"></path>
    </g>
    <defs>
        <linearGradient id="paint0_linear_477_8732" x1="26.9888" y1="-68.2239" x2="130.107" y2="-8.2347"
                        gradientUnits="userSpaceOnUse">
            <stop stop-color="white"></stop>
            <stop offset="1" stop-color="#0055FF"></stop>
        </linearGradient>
        <linearGradient id="paint1_linear_477_8732" x1="26.9888" y1="-68.2239" x2="130.107" y2="-8.2347"
                        gradientUnits="userSpaceOnUse">
            <stop stop-color="white"></stop>
            <stop offset="1" stop-color="#0055FF"></stop>
        </linearGradient>
        <linearGradient id="paint2_linear_477_8732" x1="26.9888" y1="-68.2239" x2="130.107" y2="-8.2347"
                        gradientUnits="userSpaceOnUse">
            <stop stop-color="white"></stop>
            <stop offset="1" stop-color="#0055FF"></stop>
        </linearGradient>
    </defs>
</svg>