<svg xmlns="http://www.w3.org/2000/svg" xmlns:xlink="http://www.w3.org/1999/xlink" width="96" height="42"
     viewBox="0 0 96 42" fill="none">
    <g style="mix-blend-mode: screen;">
        <path fill-rule="evenodd" clip-rule="evenodd"
              d="M67.2094 2.32876C64.2704 0.216772 60.4294 -0.396387 56.9055 0.237915C53.9947 0.764151 51.2179 2.31232 49.4418 4.70622C47.5601 7.16826 46.8577 10.4173 47.2923 13.4619C47.6869 16.4526 49.3361 19.2646 51.7958 21.0195C54.6267 23.0869 58.3197 23.7705 61.752 23.249C64.9658 22.7956 68.0457 21.0712 69.904 18.379C71.7505 15.7478 72.3331 12.339 71.6847 9.21212C71.142 6.45878 69.5093 3.93801 67.2094 2.32876ZM54.4246 6.63028C55.3902 5.61539 56.6846 4.92471 58.059 4.65689C60.2649 4.21523 62.7011 4.7814 64.3691 6.32252C67.2047 8.9584 67.3245 13.8778 64.7403 16.7227C62.2665 19.4267 57.6197 19.6476 54.8875 17.2161C51.878 14.6201 51.7324 9.50108 54.4246 6.63028ZM76.2024 0.406489C75.0733 0.402752 73.9442 0.399014 72.8151 0.428169C74.0221 2.09185 75.2149 3.76479 76.4075 5.43758L76.4081 5.4383L76.4088 5.43939L76.4102 5.44134C77.3825 6.80499 78.3546 8.16854 79.3344 9.52689L79.3342 9.52711L79.3341 9.52733L79.334 9.52756L79.3339 9.52778L79.3338 9.528L79.3337 9.52823L79.3336 9.52845L79.3334 9.52867L79.3333 9.5289C79.1504 9.85947 78.9675 10.1901 78.787 10.5206C78.3477 10.5864 77.7134 10.7485 77.7791 11.3264C77.6738 11.8896 78.2136 12.0732 78.6427 12.2191C78.6826 12.2327 78.7215 12.2459 78.7588 12.2591C78.9413 12.5404 79.1191 12.8248 79.2974 13.1098L79.4236 13.3116C77.9201 15.4265 76.3889 17.5217 74.8576 19.617C74.0297 20.7498 73.2018 21.8827 72.3782 23.0187C73.1517 23.0161 73.9248 23.0171 74.6979 23.0182C75.9629 23.0199 77.2277 23.0216 78.4933 23.007C79.0368 22.2006 79.5864 21.3984 80.1361 20.596C80.7604 19.6847 81.3849 18.7732 82.0008 17.855C82.1227 18.0904 82.2753 18.3196 82.4289 18.5502C82.8256 19.1461 83.2281 19.7507 83.1214 20.4909C83.0039 21.2262 84.1551 21.5317 84.5027 20.9279C84.6647 20.6944 84.6238 20.42 84.5838 20.1515L84.5837 20.1515C84.5686 20.0499 84.5536 19.9493 84.5497 19.8519C84.7815 19.4433 85.018 19.0366 85.2544 18.63C85.3918 18.3937 85.5292 18.1574 85.6656 17.9208C86.2055 18.6825 86.7377 19.45 87.2701 20.2175L87.2702 20.2178L87.2704 20.218L87.2706 20.2183L87.2708 20.2186L87.271 20.2188L87.2712 20.2191L87.2713 20.2193L87.2715 20.2196L87.2724 20.2209C87.9231 21.159 88.5739 22.0974 89.2389 23.0258C91.2757 23.0117 93.3125 23.014 95.3493 23.0234C93.6013 20.5942 91.8493 18.1649 90.0973 15.7356L88.3391 13.2975C88.5529 12.9357 88.7667 12.5762 88.9945 12.2215C89.0486 12.2047 89.1073 12.189 89.1681 12.1727C89.5166 12.0791 89.934 11.967 89.946 11.5449C90.1175 10.9435 89.5443 10.5512 89.011 10.5441C88.8196 10.2552 88.6384 9.9606 88.457 9.66583C88.4068 9.58425 88.3566 9.50265 88.3062 9.42117C89.6473 7.52594 91.0088 5.64458 92.3702 3.76316L92.3703 3.76307L92.3704 3.76298L92.3704 3.76288L92.3705 3.76279L92.3706 3.7627L92.3706 3.76261L92.3707 3.76251L92.3708 3.76242C93.1794 2.64495 93.9881 1.52745 94.7925 0.407025C94.0268 0.407965 93.2606 0.407401 92.4942 0.406838C91.3445 0.405992 90.1942 0.405146 89.0439 0.409375C88.5854 1.07982 88.1195 1.74545 87.6535 2.41118L87.6534 2.41132L87.6533 2.41153L87.6532 2.41166L87.6531 2.41176L87.6531 2.41182L87.6531 2.41188C87.0399 3.28786 86.4267 4.16401 85.8301 5.05153C85.379 4.31621 84.9421 3.57149 84.5262 2.81503C84.5355 2.71701 84.5577 2.6155 84.5803 2.51291C84.6382 2.24912 84.6976 1.97822 84.5403 1.74141C84.2866 1.32324 83.5795 1.24571 83.2764 1.63334C82.9963 1.88796 83.0853 2.25852 83.1648 2.58982L83.1649 2.5899L83.1649 2.58997C83.1807 2.656 83.1962 2.72046 83.2083 2.78214C82.942 3.28646 82.658 3.78016 82.3739 4.27412C82.2569 4.47736 82.14 4.68065 82.0243 4.88473C81.5515 4.23268 81.0868 3.5743 80.6221 2.91594C80.027 2.07282 79.432 1.22973 78.8199 0.399978C77.9474 0.412266 77.0749 0.409378 76.2024 0.406489ZM85.6006 8.78857L85.6005 8.78867C85.1059 9.42647 84.6113 10.0642 84.0846 10.6757C84.1198 8.14787 84.1104 5.61535 84.094 3.08754C84.4583 3.71355 84.82 4.34085 85.1818 4.96815L85.1818 4.96823L85.1819 4.96831L85.1819 4.96839L85.182 4.96846L85.182 4.96854L85.1821 4.96862L85.1821 4.9687L85.1822 4.96877L85.1835 4.97119C85.6656 5.80714 86.1477 6.64309 86.6359 7.47598C86.2839 7.90759 85.9425 8.34782 85.6011 8.78804L85.6011 8.78809L85.601 8.78813L85.601 8.78818L85.6009 8.78823L85.6009 8.78828L85.6008 8.78833L85.6008 8.78841L85.6006 8.78857ZM83.1411 10.101L83.141 10.1009L83.141 10.1009C82.4475 9.22838 81.7531 8.3548 81.0987 7.45248C81.4897 6.81404 81.8609 6.16417 82.2321 5.5143C82.6681 4.7509 83.1042 3.98749 83.5724 3.24259C83.5983 5.71402 83.5936 8.1878 83.5842 10.6592C83.4371 10.4734 83.2896 10.2878 83.142 10.1022L83.1411 10.101ZM79.2852 11.0356C79.2517 10.9827 79.209 10.9153 79.184 10.8777C79.5061 10.1662 79.9132 9.49844 80.3201 8.83091C80.495 8.54403 80.6698 8.2572 80.8379 7.96697C81.0741 8.26847 81.3098 8.57074 81.5455 8.87312C82.1326 9.62628 82.7203 10.3801 83.3187 11.1244C82.8113 11.1128 82.3028 11.1195 81.7943 11.1262C80.9658 11.1372 80.1372 11.1482 79.3132 11.0798L79.2852 11.0356ZM84.7322 11.1178L84.4135 11.115C84.6251 10.8445 84.8344 10.5719 85.0437 10.2994C85.6525 9.50668 86.2618 8.71341 86.9295 7.96697C87.1201 8.35934 87.3499 8.73334 87.5797 9.10723C87.9704 9.74298 88.3608 10.3784 88.5576 11.1032C87.2825 11.1401 86.0073 11.1289 84.7322 11.1178ZM80.8449 14.8198C80.2506 13.8167 79.6586 12.8135 79.1112 11.7845C79.4466 11.559 79.837 11.5628 80.2221 11.5665C80.3144 11.5674 80.4064 11.5683 80.4972 11.5661H83.3727C82.9905 12.0732 82.5962 12.5708 82.2019 13.0684L82.2017 13.0686L82.2017 13.0687L82.2016 13.0688C81.743 13.6475 81.2845 14.2262 80.8449 14.8198ZM86.2562 13.9666L86.2559 13.9662L86.2557 13.9659C85.6284 13.1715 85.0009 12.3769 84.3876 11.5708C84.7603 11.5714 85.133 11.5696 85.5059 11.5679H85.5061H85.5063H85.5065H85.5066H85.5068H85.507H85.5072H85.5074H85.5074C86.5211 11.5631 87.5352 11.5584 88.5482 11.6013C88.3818 12.3499 87.9788 12.9999 87.5755 13.6505C87.3409 14.0289 87.1061 14.4074 86.9178 14.8057C86.6977 14.5257 86.477 14.2461 86.2562 13.9666ZM82.677 18.0241C82.1389 17.1011 81.6007 16.1778 81.1057 15.2309C81.5219 14.7288 81.9243 14.2151 82.3267 13.7013C82.7717 13.1332 83.2167 12.565 83.6805 12.0124C83.6766 12.6134 83.6739 13.2142 83.6712 13.815V13.8155V13.816V13.8165V13.8169V13.8174V13.8179V13.8184V13.819C83.6625 15.758 83.6537 17.6962 83.6053 19.6358C83.3023 19.0969 82.9907 18.5624 82.6791 18.0278L82.679 18.0276L82.6789 18.0274L82.6788 18.0273L82.6786 18.027L82.6784 18.0265L82.678 18.0259L82.6775 18.0251L82.677 18.0241ZM84.1004 16.6029C84.1023 15.0735 84.1043 13.5441 84.0987 12.0148C84.3931 12.3931 84.6914 12.7684 84.9898 13.1437L84.9902 13.1442L84.9909 13.1451L84.991 13.1452C85.5518 13.8506 86.1127 14.5561 86.6476 15.2826C86.1808 16.0598 85.7289 16.8464 85.277 17.6331L85.2769 17.6332C84.8874 18.3114 84.4978 18.9895 84.0987 19.6616C84.0977 18.642 84.099 17.6225 84.1004 16.6029ZM0.222656 0.409509C3.00655 0.404475 5.79043 0.405434 8.57432 0.406393C9.68787 0.406777 10.8014 0.40716 11.915 0.40716C14.1891 0.47294 16.637 0.938095 18.3496 2.54734C19.9777 4.09081 20.2431 6.67971 19.3762 8.67894C18.8993 9.78544 17.9855 10.6335 16.9682 11.2467C18.6386 11.8152 20.1304 13.0697 20.6754 14.787C21.3073 16.852 21.0184 19.3822 19.3481 20.8904C17.5297 22.5208 14.9831 22.9273 12.6244 23.0118C10.0995 23.0204 7.57454 23.0194 5.04905 23.0184H5.04887H5.0487H5.04853H5.04835H5.04818H5.04801H5.04783C3.44049 23.0177 1.83292 23.017 0.225006 23.0189C0.225006 20.8656 0.225389 18.7123 0.225773 16.5591C0.226732 11.1759 0.22769 5.7927 0.222656 0.409509ZM5.45213 4.40092C5.45034 5.06318 5.45128 5.72544 5.45221 6.3877V6.38784C5.45374 7.46399 5.45526 8.54014 5.44508 9.61629C6.40377 9.63096 7.36247 9.62974 8.32116 9.62851C9.05159 9.62758 9.78202 9.62664 10.5125 9.63274C11.5461 9.64214 12.6479 9.55052 13.5383 8.97025C14.767 8.18794 14.9126 6.18166 13.7873 5.24665C12.951 4.53952 11.8046 4.40562 10.7497 4.39622C9.33841 4.40186 7.92559 4.40148 6.51246 4.40111H6.51241H6.51235H6.51229H6.51224H6.51218H6.51213H6.51207L5.45213 4.40092ZM5.45683 13.4996C5.44978 15.3438 5.44743 17.1856 5.45918 19.0298C6.6056 19.021 7.75203 19.023 8.89846 19.0249H8.89926C9.90215 19.0266 10.905 19.0282 11.9079 19.0228C12.9064 18.9805 13.9776 18.856 14.7975 18.2311C16.0403 17.2796 15.9651 15.083 14.6472 14.2256C13.7779 13.6476 12.6973 13.5419 11.6777 13.5067C10.6805 13.501 9.68274 13.5025 8.68471 13.5039H8.68454H8.68436H8.68419H8.68402H8.68385H8.68368H8.68351C7.60816 13.5054 6.5325 13.5069 5.45683 13.4996ZM24.892 14.1328V14.1329V14.133V14.133V14.1331V14.1332V14.1333C24.8932 17.0952 24.8944 20.0571 24.8916 23.0187C26.6536 23.0163 28.4155 23.0163 30.1775 23.0187C30.1775 22.3201 30.1772 21.6217 30.177 20.9235V20.9194V20.9191V20.9189V20.9186V20.9184V20.9181C30.1765 19.5236 30.1759 18.1295 30.1775 16.7344C30.8529 16.7334 31.5287 16.7336 32.2048 16.7339C33.1067 16.7343 34.009 16.7347 34.9113 16.732L35.4498 17.5066L35.4506 17.5076C36.7233 19.3378 37.9971 21.1693 39.2527 23.0116C39.6191 23.0125 39.9854 23.0139 40.3517 23.0152C41.8907 23.0208 43.4296 23.0264 44.9685 22.9999C44.4084 22.1969 43.848 21.3941 43.2876 20.5914L43.2839 20.5862C42.165 18.9835 41.0461 17.3807 39.9293 15.7759C41.4352 15.0664 42.8236 13.9975 43.6036 12.4963C45.2363 9.35766 44.7524 5.00682 41.9661 2.6646C40.1666 1.10703 37.7351 0.500921 35.4046 0.409299C33.7574 0.402666 32.1102 0.404357 30.4628 0.406048C28.6093 0.40795 26.7555 0.409852 24.901 0.399902C24.8882 4.97703 24.8901 9.55502 24.892 14.1328ZM30.177 9.90052V9.89525V9.89473V9.89421V9.89369V9.89317V9.89265C30.1765 8.15942 30.1759 6.42689 30.1775 4.69437C30.7779 4.70061 31.3783 4.69669 31.9787 4.69277C32.9594 4.68637 33.94 4.67997 34.9207 4.71786C36.3561 4.78599 37.9724 5.28168 38.7077 6.62546C39.4524 8.08436 39.3561 10.0789 38.1791 11.2888C37.2676 12.1768 35.945 12.4775 34.7092 12.5033C33.8633 12.5112 33.0174 12.5088 32.1714 12.5064C31.5068 12.5045 30.8421 12.5026 30.1775 12.5057C30.1775 11.6371 30.1772 10.7687 30.177 9.90052ZM26.2763 30.6352C28.3624 27.3298 33.7023 27.0972 36.2278 30.0009C37.7548 31.7535 37.9568 34.4716 36.8198 36.4778C36.1667 37.6713 35.0038 38.4512 33.7963 39.0033C34.6772 39.7974 35.9928 39.6212 36.7963 38.8107C37.2239 39.3322 37.6585 39.8467 38.1095 40.3494C37.2121 41.5053 35.6451 41.9352 34.2403 41.6979C32.92 41.5405 31.7947 40.7347 30.8761 39.8232C30.4684 39.3299 29.8888 39.1478 29.3048 38.9642C28.8624 38.8252 28.4175 38.6854 28.0429 38.4089C25.4235 36.9007 24.6224 33.1325 26.2763 30.6352ZM30.3405 30.748C28.2966 31.5538 27.9301 34.5961 29.5042 36.0268C30.5848 37.0417 32.4501 37.0229 33.512 35.9892C34.548 34.9696 34.6937 33.2476 34.0218 31.9931C33.3476 30.7174 31.6514 30.1982 30.3405 30.748ZM13.6841 28.1824C13.6654 31.8261 13.67 35.4698 13.6818 39.1135C14.9104 39.1086 16.1386 39.1103 17.3667 39.112H17.3668H17.3668H17.3669H17.3669C19.0554 39.1144 20.7437 39.1167 22.4328 39.1018C22.4234 38.3007 22.4234 37.5019 22.4258 36.7031C21.4767 36.702 20.527 36.7026 19.5773 36.7031C18.6276 36.7037 17.6779 36.7043 16.7288 36.7031V34.7063C17.2627 34.7071 17.7967 34.7065 18.3307 34.706C19.3989 34.705 20.4672 34.7039 21.5354 34.7133C21.5471 33.9475 21.5471 33.1816 21.5448 32.4157L20.3413 32.4154H20.3412H20.3411H20.341H20.3409C19.1378 32.415 17.935 32.4146 16.7335 32.4181C16.7288 31.8096 16.7288 31.2035 16.7288 30.5951C17.5092 30.594 18.2896 30.5943 19.0699 30.5946C20.1102 30.595 21.1505 30.5954 22.1908 30.5927C22.1885 29.7916 22.1885 28.9905 22.1908 28.1894C20.8405 28.1849 19.4902 28.1858 18.1399 28.1866H18.1387C16.6539 28.1876 15.169 28.1885 13.6841 28.1824ZM40.9273 28.1871C41.9657 28.1848 43.0017 28.1848 44.0401 28.1895C44.043 29.0701 44.0411 29.9508 44.0392 30.8315C44.0365 32.0792 44.0338 33.327 44.0448 34.5748C44.0378 35.4229 44.423 36.3931 45.297 36.668C46.0628 36.8771 47.0401 36.8254 47.5828 36.1699C48.1419 35.4581 48.1513 34.5043 48.1584 33.6445C48.1518 32.797 48.1524 31.9501 48.153 31.1032C48.1536 30.1353 48.1543 29.1674 48.1443 28.1989C49.0709 28.1818 49.9974 28.1841 50.9258 28.1864H50.9259H50.9259H50.926L51.2054 28.1871C51.195 28.9998 51.2008 29.8128 51.2066 30.6257V30.6262V30.6263V30.6263V30.6263C51.2166 32.0293 51.2266 33.4322 51.1537 34.8332C51.0997 36.3884 50.308 37.9554 48.8984 38.6977C47.2116 39.5435 45.1161 39.5505 43.3941 38.7917C41.8553 38.1034 41.0002 36.4284 40.9461 34.7956C40.9158 33.4412 40.921 32.0858 40.9262 30.7302V30.73V30.7299V30.7297V30.7288C40.9295 29.8816 40.9328 29.0344 40.9273 28.1871ZM58.1947 28.1875H55.1406V39.1116H58.1947V28.1875ZM61.2461 28.1871C62.329 28.1871 63.4119 28.1868 64.495 28.1866H64.5006C66.665 28.186 68.8298 28.1855 70.9956 28.1871V30.6538L70.1726 30.6541H70.1723C69.3505 30.6545 68.5297 30.655 67.7089 30.6515C67.7058 31.9057 67.7064 33.1594 67.707 34.4129V34.413C67.7077 35.9793 67.7084 37.5453 67.7019 39.1112L67.0803 39.1114C66.2514 39.1117 65.4222 39.1121 64.5915 39.1065C64.5961 36.2897 64.5961 33.4706 64.5915 30.6538H61.2461V28.1871ZM74.3297 28.1862C73.6806 28.1865 73.0313 28.1868 72.3828 28.1896C72.7392 28.7845 73.0958 29.3794 73.4525 29.9744C74.3816 31.5245 75.311 33.0749 76.238 34.6266C76.2651 34.6783 76.2941 34.73 76.3233 34.782C76.4535 35.0137 76.5873 35.252 76.5739 35.5264C76.5912 36.2019 76.5859 36.8782 76.5806 37.5544C76.5765 38.0728 76.5725 38.5911 76.5786 39.109C77.3413 39.1125 78.104 39.1121 78.8677 39.1116C79.1226 39.1115 79.3775 39.1114 79.6327 39.1114C79.65 38.6001 79.6407 38.0867 79.6315 37.5733C79.6169 36.7658 79.6023 35.9584 79.6914 35.1599C80.4211 33.8552 81.1941 32.5749 81.9672 31.2945C82.5904 30.2624 83.2136 29.2302 83.8143 28.1849C83.6917 28.1852 83.5691 28.1856 83.4466 28.1859C82.59 28.1885 81.7348 28.1911 80.8778 28.1685C80.2774 29.0964 79.7136 30.0461 79.1499 30.9957C78.8445 31.5102 78.539 32.0247 78.2278 32.5357C77.375 31.0792 76.5034 29.6297 75.6272 28.1849C75.1949 28.1858 74.7624 28.186 74.3297 28.1862Z"
              fill="url(#paint0_linear_477_8712)"></path>
    </g>
    <defs>
        <linearGradient id="paint0_linear_477_8712" x1="34.4472" y1="-34.745" x2="90.9358" y2="47.0821"
                        gradientUnits="userSpaceOnUse">
            <stop stop-color="white"></stop>
            <stop offset="1" stop-color="#0055FF"></stop>
        </linearGradient>
    </defs>
</svg>