<svg xmlns="http://www.w3.org/2000/svg" xmlns:xlink="http://www.w3.org/1999/xlink" width="145" height="35"
     viewBox="0 0 145 35" fill="none">
    <g style="mix-blend-mode: screen;">
        <path fill-rule="evenodd" clip-rule="evenodd"
              d="M117.016 0H111.503C115.742 5.32311 119.964 10.6611 124.185 15.9992C129.2 22.341 134.216 28.6829 139.26 35H144.741C140.129 29.1602 135.511 23.3269 130.886 17.5L130.887 17.499L130.888 17.4981C135.509 11.6686 140.129 5.83917 144.737 0H139.257C136.922 2.90062 134.615 5.82407 132.308 8.74733C130.926 10.4978 129.545 12.2481 128.158 13.9935C126.228 11.6043 124.322 9.19438 122.416 6.78468L122.415 6.78443L122.415 6.78392L122.414 6.78313C120.621 4.51614 118.829 2.24932 117.016 0ZM116.478 28.7301L116.478 28.7307C114.827 30.8259 113.176 32.9214 111.503 35H117.013C119.047 32.4732 121.056 29.9252 123.065 27.377L123.066 27.3758C124.744 25.2477 126.423 23.1194 128.116 21.0033C126.285 21.0227 124.457 21.0195 122.629 21.0065C120.553 23.5587 118.516 26.1436 116.479 28.7288L116.479 28.729L116.479 28.7293L116.479 28.7295L116.479 28.7297L116.478 28.7299L116.478 28.7301ZM1.10646 12.9014C2.34766 10.8306 4.70692 9.6801 7.04349 9.38519C9.69766 9.05788 12.449 9.15186 15.0157 9.94908C15.0222 10.2051 15.0384 10.7171 15.0481 10.9699C11.5449 10.0852 7.61386 9.77408 4.32451 11.537C1.57636 13.1347 0.899049 16.706 1.44349 19.613C1.69951 21.8491 3.08331 23.9329 5.17683 24.8403C8.29766 26.1204 11.8398 25.9 15.0416 25.0218C15.029 25.3593 15.0195 25.7 15.01 26.0377L15.0092 26.0653C11.4055 26.963 7.32868 27.2644 3.91294 25.5532C1.62173 24.4319 0.29303 21.9333 0.0759005 19.4607C-0.0893773 17.2472 -0.079655 14.862 1.10646 12.9014ZM34.0127 10.9214C31.3229 9.01259 27.7613 8.9899 24.6211 9.45981C22.3201 9.80657 20.0873 11.1612 19.0859 13.3228C17.7669 16.2232 17.8317 19.6876 19.0924 22.5978C20.2363 25.0543 22.9002 26.4089 25.5025 26.6681C28.3187 26.8237 31.4169 26.882 33.8086 25.1418C35.9377 23.6575 36.7836 20.9515 36.7609 18.4496C36.9261 15.7306 36.3169 12.6455 34.0127 10.9214ZM20.6576 13.3584C21.7789 11.3978 24.015 10.5001 26.1734 10.3024C28.2507 10.1177 30.4641 10.2732 32.3243 11.2973C34.4502 12.5515 35.3382 15.1635 35.2669 17.526C35.39 19.9306 34.8586 22.6431 32.8461 24.1922C30.4803 25.9228 27.2882 25.9195 24.5433 25.2746C22.4368 24.8274 20.622 23.1811 20.0711 21.0843C19.3224 18.5598 19.4294 15.7144 20.6576 13.3584ZM41.7502 10.0596C45.247 8.65957 49.1359 9.24938 52.746 9.84244C52.7509 10.0384 52.7566 10.2343 52.7622 10.4303C52.7679 10.6265 52.7736 10.8226 52.7784 11.0188C50.215 10.3188 47.5252 10.0823 44.8808 10.3026C43.4613 10.5424 41.8669 10.9702 41.0372 12.2503C40.0132 13.8253 40.3794 16.5054 42.4048 17.0498C43.7588 17.4014 45.1704 17.3673 46.5799 17.3331C48.3925 17.2893 50.2018 17.2455 51.8808 18.0221C54.6257 19.6392 54.1201 24.173 51.5081 25.6735C49.6245 26.7683 47.4042 26.7406 45.284 26.7141C45.0696 26.7114 44.8561 26.7087 44.6442 26.7073C43.3098 26.7127 42.0056 26.4507 40.704 26.1892L40.704 26.1892L40.7038 26.1891L40.7036 26.1891C40.4691 26.142 40.2347 26.0949 40.0002 26.0494C40.0002 25.9019 39.9986 25.6816 39.997 25.4612C39.9953 25.2408 39.9937 25.0204 39.9937 24.873C42.5669 25.586 45.2599 25.8258 47.9238 25.6346C49.2817 25.4207 50.8081 25.0383 51.5923 23.8003C52.4252 22.5299 52.6488 20.5758 51.4951 19.435C50.4493 18.4868 49.0184 18.4944 47.6702 18.5015C47.4058 18.5029 47.1446 18.5043 46.89 18.4985C46.4502 18.4875 46.0033 18.495 45.5542 18.5026C44.0144 18.5285 42.4484 18.5549 41.0534 17.8373C38.1303 16.2299 38.7234 11.2424 41.7502 10.0596ZM58.6749 9.28153H57.2814V26.6422H58.6749C58.6749 24.7127 58.6745 22.7833 58.6742 20.854V20.8536V20.8532C58.6734 16.9952 58.6727 13.1376 58.6749 9.28153ZM62.6286 9.28484C63.0823 9.2816 63.536 9.27835 63.9929 9.27187C65.2277 11.6213 66.4763 13.9632 67.7249 16.3051C69.3077 19.2737 70.8904 22.2423 72.4448 25.226C73.0213 24.0751 73.5984 22.9246 74.1755 21.774L74.1818 21.7614L74.1832 21.7586C76.2669 17.6043 78.3504 13.4505 80.404 9.28484C80.8189 9.2816 81.2369 9.2816 81.655 9.2816C81.655 11.2132 81.6546 13.1444 81.6543 15.0756C81.6535 18.9374 81.6528 22.7988 81.655 26.6617C81.5027 26.6617 81.2742 26.6625 81.0457 26.6633C80.8172 26.6641 80.5888 26.6649 80.4365 26.6649C80.4365 25.2336 80.4407 23.802 80.4449 22.3703V22.3702C80.4555 18.7907 80.4661 15.2109 80.4105 11.6344C80.0285 12.4015 79.6461 13.1686 79.2638 13.9358L79.2285 14.0067L79.2276 14.0086C77.1281 18.2213 75.0275 22.4362 72.9568 26.6649H71.8355C70.8649 24.8249 69.9023 22.9806 68.9398 21.1364L68.9394 21.1355C67.2541 17.9064 65.569 14.6775 63.8406 11.4723C63.8255 14.8483 63.8277 18.2243 63.8298 21.6003V21.6026C63.8309 23.2911 63.832 24.9796 63.8309 26.6682L62.6318 26.6552C62.6415 20.8672 62.6448 15.076 62.6286 9.28484ZM100.821 10.9213C98.1281 8.97363 94.5795 9.02224 91.4262 9.42733C88.5744 9.82594 85.998 11.9227 85.3401 14.7778C84.6725 17.7009 84.7989 21.0357 86.5035 23.6056C88.2438 25.9972 91.3808 26.8593 94.2165 26.7199C96.6373 26.8301 99.2494 26.3926 101.123 24.7431C103.08 23.0546 103.676 20.3065 103.637 17.8273C103.676 15.2931 102.941 12.5028 100.821 10.9213ZM87.91 12.7847C89.1026 11.132 91.2091 10.5486 93.1308 10.2926C95.3183 10.0949 97.6744 10.3185 99.5508 11.55C101.764 13.2028 102.305 16.194 102.13 18.7931C101.981 21.1232 101.035 23.6801 98.7957 24.7431C96.2452 25.9778 93.1406 25.9713 90.5026 25.0121C88.2957 24.2375 86.8373 22.0533 86.5683 19.7815C86.2896 17.406 86.3804 14.7519 87.91 12.7847Z"
              fill="url(#paint0_linear_477_8641)"></path>
    </g>
    <defs>
        <linearGradient id="paint0_linear_477_8641" x1="52.0745" y1="-29.12" x2="85.7159"
                        y2="59.3506" gradientUnits="userSpaceOnUse">
            <stop stop-color="white"></stop>
            <stop offset="1" stop-color="#0055FF"></stop>
        </linearGradient>
    </defs>
</svg>