<svg xmlns="http://www.w3.org/2000/svg" xmlns:xlink="http://www.w3.org/1999/xlink" width="93" height="59"
     viewBox="0 0 93 59" fill="none">
    <g style="mix-blend-mode: screen;">
        <path fill-rule="evenodd" clip-rule="evenodd"
              d="M44.2131 0C19.7959 0 0 19.6423 0 43.8718V59H48.7869C73.2041 59 93 39.3577 93 15.1282V0H44.2131ZM70.5838 22.7041C69.8751 22.6672 69.1604 22.7182 68.4696 22.84C67.2189 23.0875 66.0576 23.6733 65.0928 24.4844C63.3658 25.9425 62.2759 28.1305 62.4665 30.3982C62.3712 32.2708 63.3062 34.0229 64.539 35.3902C66.1112 36.9747 68.4219 37.8057 70.6612 37.6233C72.829 37.6056 74.7764 36.3727 76.1283 34.7882C76.837 33.9683 77.3074 32.9851 77.5516 31.9465C77.629 31.6244 77.6826 31.2972 77.7184 30.9685C77.7541 30.5888 77.766 30.2062 77.7481 29.825C77.7362 29.5273 77.7065 29.2311 77.6648 28.9386C77.4921 27.8586 77.0514 26.8385 76.4141 25.9477C75.7114 24.9519 74.7585 24.118 73.6687 23.5418C72.7218 23.0195 71.6617 22.7603 70.5838 22.7041ZM65.2953 30.1449C65.2596 28.149 66.7544 26.3133 68.6542 25.7017C70.3277 25.3383 72.2751 25.5968 73.49 26.874C75.2886 28.5678 75.3243 31.7338 73.5257 33.4401C73.2756 33.6964 72.9898 33.9166 72.686 34.1027C72.3644 34.2977 72.025 34.4566 71.6676 34.5821C71.4592 34.656 71.2508 34.7188 71.0423 34.7712C68.2314 35.4346 65.1465 32.9821 65.2953 30.1449ZM69.5594 28.6291C68.9818 29.2141 68.547 29.9107 68.3743 30.7151L68.5887 30.8717L68.821 31.0534C69.1485 31.3209 69.482 31.5897 69.8989 31.6976C70.8637 31.722 71.8165 30.6568 71.4175 29.7305C71.1495 29.1536 70.5421 28.9556 69.9704 28.768L69.5594 28.6291ZM54.7185 23.2301C52.3244 22.3015 49.4003 22.6081 47.3635 24.1881C45.833 25.3309 44.6002 27.0055 44.3858 28.9164C44.2965 29.743 44.2786 30.5955 44.3918 31.425L44.4692 31.8874L44.5824 32.3727C44.6359 32.5744 44.7074 32.7738 44.7848 32.9696C44.8682 33.1794 44.9635 33.3855 45.0707 33.5864C45.4995 34.427 46.1069 35.1856 46.8275 35.8128C48.1675 36.9762 49.9184 37.6905 51.7229 37.6477C52.5269 37.6935 53.3368 37.5974 54.111 37.378C54.915 37.1498 55.6773 36.7878 56.3622 36.3136C56.8684 35.9613 57.327 35.5468 57.726 35.0785C58.9707 33.7644 59.5186 31.9953 59.6377 30.2379C57.0947 30.2136 54.5577 30.235 52.0207 30.2306L52.0743 30.9567C53.4381 31.0712 54.778 31.3393 56.1002 31.6806V32.6822L55.6356 33.1543C55.3379 33.4527 55.0222 33.7415 54.6887 33.9912C54.3016 34.2756 53.8847 34.5097 53.4143 34.6523C52.7234 34.9064 51.9909 34.9655 51.2763 34.8606C51.0202 34.8237 50.77 34.7661 50.5259 34.69C49.5492 34.3864 48.6678 33.7807 48.0722 32.9674C47.2921 31.9022 46.9169 30.5127 47.2266 29.2215C47.566 27.8564 48.507 26.611 49.8172 26.0112C50.7164 25.5894 51.7527 25.5163 52.7294 25.6138C53.0033 25.6441 53.2594 25.7179 53.5095 25.8169C53.8728 25.961 54.2123 26.1575 54.5517 26.351C54.9269 26.566 55.3021 26.7765 55.7131 26.9057C55.8679 26.9087 56.0168 26.8895 56.1538 26.8533C56.2609 26.8267 56.3681 26.7905 56.4694 26.7469C56.785 26.6118 57.0768 26.4079 57.3627 26.2077C57.5235 26.0932 57.6843 25.9802 57.851 25.8819L57.8332 25.3722L57.3806 24.9468L57.2138 24.7998L56.8029 24.4526L56.4813 24.2014L56.2312 24.0264C55.7607 23.7036 55.2604 23.428 54.7185 23.2301ZM12.2146 22.9516C14.5432 22.9324 16.8717 22.9154 19.2003 22.9472C23.0773 23.0373 26.5672 26.5615 26.2813 30.4056C26.4898 34.2815 22.8033 37.8471 18.8549 37.6351L12.2146 37.6299C12.1908 32.7354 12.1848 27.8439 12.2146 22.9516ZM14.168 31.3149C14.0667 31.8468 14.0072 32.3846 13.9714 32.9245C13.9357 33.4335 13.9238 33.9446 13.9119 34.4543C14.692 34.7638 15.5139 34.9832 16.3596 34.9345L17.0325 34.9264L17.4971 34.9315C17.8961 34.9367 18.2951 34.9426 18.6941 34.9271C19.504 34.8946 20.3021 34.7727 21.0346 34.379C22.4937 33.6012 23.5001 32.0292 23.512 30.3931C23.5597 29.5414 23.3155 28.7067 22.8689 27.9827C22.3746 27.1864 21.642 26.5238 20.7964 26.1205C20.2604 25.913 19.7125 25.7962 19.1527 25.732C18.5273 25.6611 17.8961 25.6559 17.2648 25.6633L16.7824 25.6714L16.1452 25.6803L15.2578 25.6699C15.1089 26.2897 14.9779 26.9139 14.8648 27.5403L14.5729 29.1417L14.3943 30.1419L14.168 31.3149ZM31.4268 23.1725L28.6873 23.188C28.6337 24.1874 28.6575 25.2164 29.1578 26.1183L30.9861 26.1094L33.1122 26.1227L33.2253 26.5408L33.3742 27.0852C33.4219 27.2891 33.4576 27.4937 33.4695 27.7028C33.4874 28.9401 33.4755 30.1788 33.4636 31.4176L33.4517 33.3345L33.4576 35.1169L33.4814 36.4599L33.5529 37.8153L36.7271 37.8205C36.7926 36.7679 36.7629 35.716 36.7331 34.6634L36.7033 33.4748C36.6974 32.9408 36.6974 32.4067 36.7152 31.8726V30.9921L36.7033 30.2734L36.6914 29.7076C36.6735 28.8042 36.6855 27.9015 36.8582 27.0099C36.9237 26.676 37.0785 26.1981 37.5073 26.1863L38.0016 26.1353L38.2696 26.1183L38.9783 26.0976L39.5143 26.1028L41.027 26.1501C41.8012 25.3361 41.6821 24.2044 41.6523 23.1835C38.2458 23.168 34.8333 23.1584 31.4268 23.1725Z"
              fill="url(#paint0_linear_477_8455)"></path>
    </g>
    <defs>
        <linearGradient id="paint0_linear_477_8455" x1="33.4594" y1="-49.0879" x2="118.809"
                        y2="36.4654" gradientUnits="userSpaceOnUse">
            <stop stop-color="white"></stop>
            <stop offset="1" stop-color="#0055FF"></stop>
        </linearGradient>
    </defs>
</svg>