<svg xmlns="http://www.w3.org/2000/svg" xmlns:xlink="http://www.w3.org/1999/xlink" width="114" height="50"
     viewBox="0 0 114 50" fill="none">
    <g style="mix-blend-mode: screen;">
        <path d="M8.62829 0H12.9461C12.9417 0.548952 12.9403 1.09827 12.9417 1.64777L12.9461 2.85116C12.9519 4.01794 12.9577 5.18489 12.9388 6.35075C12.9344 6.88422 12.7482 7.38908 12.5648 7.88301L12.5182 8.00745L11.3438 11.0716C10.67 12.8371 10.0006 14.6042 9.33119 16.3715L7.55867 21.0373L7.45389 21.0362C5.57659 21.0145 3.47082 20.9901 1.99372 19.6604C0.391468 18.0821 0.10769 15.6828 0 13.5447V12.75L0.685432 12.7503C1.80599 12.7509 2.92509 12.7512 4.04565 12.7389C4.14606 14.0485 4.06893 15.4328 4.62776 16.6529C5.18658 17.6641 6.61275 17.7089 7.56595 17.3098C8.15533 17.0221 8.40564 16.4722 8.51769 15.8711C8.59337 15.4703 8.60792 15.0469 8.61956 14.663L8.62393 14.5634C8.63412 11.6317 8.6312 8.69979 8.62829 5.7681C8.62684 3.8454 8.62538 1.9227 8.62829 0Z"
              fill="url(#paint0_linear_477_8631)"></path>
        <path fill-rule="evenodd" clip-rule="evenodd"
              d="M57.7189 5.58973C60.6993 4.42168 64.6474 4.80975 66.8056 7.37323C68.3482 9.22779 68.664 11.7315 68.5708 14.0598L64.4888 14.0599C62.1298 14.0589 59.7708 14.0578 57.4089 14.0672L57.4526 14.3137C57.5355 14.8008 57.6229 15.3011 57.8004 15.7604C57.9168 16.0604 58.0711 16.3432 58.2894 16.5934C59.8421 18.3696 63.15 18.2389 64.3346 16.0971C65.6909 16.0934 67.0516 16.0821 68.4108 16.112C67.8403 18.3433 65.9412 20.0897 63.7539 20.6904C60.8885 21.4926 57.5326 20.9329 55.3716 18.7986C53.5947 17.0337 53.3109 14.3321 53.4943 11.9516C53.6238 9.27625 55.1707 6.60838 57.7189 5.58973ZM57.5137 11.4329L59.0985 11.4396L61.3382 11.4425C62.383 11.4411 63.4279 11.4353 64.4728 11.4218C64.3535 9.50381 62.6217 7.95898 60.6804 8.23519C58.9064 8.1942 57.7975 9.85454 57.5137 11.4329Z"
              fill="url(#paint1_linear_477_8631)"></path>
        <path d="M79.5494 5.75753C77.106 4.67912 74.1038 4.56343 71.6895 5.78358C69.3043 7.00374 68.1386 10.5784 70.0683 12.6716C71.4203 13.8266 73.1142 14.2219 74.811 14.618C75.8879 14.8694 76.9663 15.121 77.9588 15.5672C78.3357 15.7555 78.5307 16.147 78.5409 16.5423C78.5511 16.9698 78.3459 17.4018 77.9224 17.586C76.6432 18.1531 75.0788 18.1158 73.7982 17.5821C73.0152 17.2799 72.8595 16.3919 72.6383 15.6904C71.2937 15.6904 69.949 15.6829 68.6043 15.7015C68.6262 17.9851 70.24 20.0673 72.4491 20.6306C74.9158 21.2315 77.6794 21.2874 80.0195 20.1941C82.5749 19.0224 83.5398 15.1866 81.4718 13.1493C80.1359 11.8887 78.3896 11.5067 76.6447 11.1248C75.6944 10.9165 74.7441 10.7085 73.8608 10.3583C72.8624 10.097 72.9076 8.61197 73.8244 8.26507C75.4223 7.56727 77.9734 7.89194 78.2571 9.97387C79.5727 9.9777 80.8868 9.98134 82.2067 9.97023C81.9899 8.26871 81.2302 6.4628 79.5494 5.75753Z"
              fill="url(#paint2_linear_477_8631)"></path>
        <path fill-rule="evenodd" clip-rule="evenodd"
              d="M88.8791 5.11948C91.2818 4.6456 94.0235 4.80228 96.0274 6.35822C99.8242 9.54863 99.8912 16.194 96.17 19.4664C94.4033 20.9292 91.9599 21.1941 89.7581 20.9478C87.974 20.7649 86.2145 19.9403 85.1202 18.4851C82.687 15.3209 82.7277 10.4776 85.2089 7.35446C86.1214 6.20518 87.4486 5.42174 88.8791 5.11948ZM89.617 8.51504C87.6378 9.418 87.3322 11.9104 87.5112 13.8322C87.5781 15.5559 88.6216 17.5 90.5105 17.6716C92.1753 18.0076 93.9493 16.9776 94.3844 15.3134C94.9069 13.4888 94.9214 11.362 93.9449 9.68655C93.0732 8.24266 91.0911 7.89922 89.617 8.51504Z"
              fill="url(#paint3_linear_477_8631)"></path>
        <path fill-rule="evenodd" clip-rule="evenodd"
              d="M26.157 5.9441C23.6685 4.76876 20.6474 4.66418 18.0919 5.68283C16.2437 6.41798 15.3153 8.37694 15.1668 10.265C16.4416 10.2725 17.7194 10.2725 18.9927 10.265C19.2765 8.05974 21.9135 7.75748 23.571 8.55604C24.4063 9.01134 24.5184 10.4776 23.5564 10.8657C22.6411 11.2035 21.6602 11.3283 20.6794 11.4531C19.2867 11.6304 17.8955 11.8075 16.6905 12.5933C14.6793 13.8322 14.2398 16.6978 15.2119 18.7314C16.187 20.5933 18.5154 21.2501 20.4756 20.9367C21.9949 20.7576 23.2654 19.8135 24.3394 18.7873C24.4471 19.3731 24.5664 19.9552 24.693 20.5412C25.1951 20.5386 25.6972 20.5395 26.1992 20.5404L27.1641 20.5412C27.5599 20.5408 27.9557 20.539 28.3516 20.5342L29.2087 20.5187C29.1447 20.3775 29.0646 20.2429 28.9773 20.111L28.81 19.8658C28.5509 19.495 28.2934 19.125 28.2701 18.6642C28.19 17.051 28.2017 15.4348 28.2148 13.8187C28.2264 12.2688 28.2381 10.7189 28.1682 9.17167C28.1202 7.83582 27.4013 6.50744 26.157 5.9441ZM19.7829 17.9516C18.3786 17.4254 18.3524 15.1418 19.6825 14.5076C20.0769 14.3265 20.4873 14.2011 20.9049 14.0998C21.2251 14.0222 21.5496 13.9586 21.8756 13.8951C22.6891 13.7362 23.5041 13.577 24.2535 13.1942C24.2433 13.4299 24.2404 13.6732 24.2375 13.9197C24.2259 15.0309 24.2142 16.2078 23.4342 17.0598C22.4956 17.9627 21.0301 18.3694 19.7829 17.9516Z"
              fill="url(#paint4_linear_477_8631)"></path>
        <path d="M32.4656 5.3802L34.2236 5.37692C34.2236 6.10825 34.2192 6.83958 34.2119 7.56727C35.2845 5.54855 37.658 4.61572 39.8482 5.1306C41.2336 5.28 42.1985 6.39193 42.7922 7.56727C44.2897 4.9515 48.1752 4.183 50.5226 6.0709C51.7479 7.01503 52.2427 8.60085 52.2282 10.1009C52.2529 12.2617 52.2427 14.4242 52.2325 16.5863L52.2282 17.1511C52.2238 18.2799 52.2194 19.4088 52.2209 20.5373H48.1301C48.1258 17.418 48.1374 14.2948 48.1301 11.1754C48.1156 10.3732 48.0661 9.44405 47.4069 8.88435C47.0634 8.60322 46.6428 8.45091 46.2048 8.40481C45.6314 8.34451 45.0275 8.4664 44.5269 8.72019C43.5591 9.28372 43.2943 10.4964 43.2914 11.5336C43.2826 12.7407 43.2812 13.9484 43.2812 15.1562L43.2826 16.8696C43.2841 18.0925 43.2855 19.3152 43.2826 20.5373H39.2632C39.2588 19.2038 39.2603 17.8704 39.2632 16.5365C39.2661 14.7578 39.269 12.9784 39.2559 11.1979C39.2443 10.2949 39.1176 9.19408 38.2314 8.71272C37.9709 8.58883 37.69 8.5063 37.4019 8.46385C37.0846 8.41739 36.7572 8.41921 36.44 8.46822C36.0354 8.53053 35.6439 8.669 35.3034 8.88071C34.4651 9.44551 34.4259 10.5514 34.3953 11.4719L34.3909 11.5561C34.3793 14.5486 34.3938 17.5448 34.3909 20.5373H30.3409V5.38075L32.4656 5.3802Z"
              fill="url(#paint5_linear_477_8631)"></path>
        <path d="M106.955 5.22024C105.677 5.51503 104.827 6.57103 104.061 7.55233C104.072 6.82847 104.079 6.10461 104.087 5.38075L102 5.37947L100.216 5.38075V20.5373H104.209C104.232 17.6718 104.165 14.8024 104.235 11.9367C104.273 10.6866 104.653 9.23507 105.859 8.63074C106.843 8.1829 108.121 8.13061 109.023 8.78742C109.835 9.40415 109.871 10.5015 109.902 11.4376L109.906 11.5672L109.911 13.1781L109.909 16.3343C109.908 17.7355 109.906 19.1364 109.909 20.5373H114V10.0486C113.967 9.49415 113.898 8.91696 113.756 8.36546C113.664 8.01255 113.54 7.67021 113.376 7.351C113.173 6.95691 112.907 6.59817 112.558 6.29865C111.049 4.99632 108.84 4.7427 106.955 5.22024Z"
              fill="url(#paint6_linear_477_8631)"></path>
        <path d="M6.56036 23.6494C9.12017 22.8545 11.9885 22.8957 14.4479 24.0076C16.9102 25.1306 18.5561 27.6568 18.8661 30.3172L17.1343 30.3246H14.544C14.1569 29.2725 13.7581 28.1157 12.7525 27.4926C10.8752 26.3098 8.05055 26.5374 6.64622 28.3582C5.38741 29.918 5.10072 32.0112 5.08471 33.9552C5.08908 35.8845 5.37577 38.0038 6.76118 39.4664C8.24847 41.1195 11.0193 41.347 12.7889 40.03C13.7581 39.3061 14.1569 38.1269 14.525 37.0299L16.8142 37.0256L18.7992 37.0299C18.3771 39.2427 17.3424 41.3993 15.5423 42.806C13.1062 44.7836 9.63389 44.9552 6.73208 44.0523C3.93068 43.1754 1.88166 40.6791 1.15112 37.8844C2.54381 34.2637 3.91613 30.6364 5.28845 27.0092L6.56036 23.6494Z"
              fill="url(#paint7_linear_477_8631)"></path>
        <path d="M55.8125 23.3582H51.7625V27.0224H55.8125V23.3582Z"
              fill="url(#paint8_linear_477_8631)"></path>
        <path d="M81.5475 23.4851H85.5378V44.0224L84.2936 44.024L81.5475 44.0224C81.5475 37.1792 81.5446 30.3321 81.5475 23.4851Z"
              fill="url(#paint9_linear_477_8631)"></path>
        <path d="M62.8982 24.7387H58.9457V28.9738H56.8181C56.8137 29.9178 56.8137 30.8581 56.8181 31.8022H58.9457C58.9486 34.8917 58.9341 37.9814 58.9486 41.0708C58.9384 41.556 58.9981 42.0773 59.1785 42.5369C59.3532 42.9786 59.6399 43.3632 60.0852 43.6044C61.3687 44.3239 62.8589 44.26 64.304 44.1978C64.6649 44.1823 65.0229 44.167 65.3751 44.1641C65.3751 43.1865 65.3751 42.2088 65.3824 41.2275C65.1728 41.1975 64.9123 41.2055 64.6416 41.2139C63.8354 41.239 62.9288 41.2671 62.939 40.3096C62.9084 39.4866 62.8953 38.6631 62.8895 37.8392C62.8837 36.9102 62.8895 35.9809 62.8953 35.0515C62.9026 33.9683 62.9099 32.885 62.8982 31.8022H65.3751V28.9738H62.8982V24.7387Z"
              fill="url(#paint10_linear_477_8631)"></path>
        <path fill-rule="evenodd" clip-rule="evenodd"
              d="M69.2301 29.1269C71.7593 28.1678 74.7179 28.2575 77.173 29.4104C78.439 29.9701 79.1769 31.3209 79.222 32.6717C79.2583 33.5699 79.27 34.4683 79.2729 35.3669C79.2744 36.0605 79.27 36.7541 79.2656 37.4477C79.2598 38.3689 79.254 39.2901 79.2627 40.2111C79.2671 40.7365 79.2758 41.262 79.2933 41.7872C79.2249 42.4008 79.5465 42.8824 79.8667 43.3628C80.0064 43.5718 80.1461 43.7806 80.2538 44C78.8451 44.0384 77.4364 44.0277 76.0262 44.0171L75.7381 44.0149L75.594 43.3348L75.495 42.829L75.3917 42.2686C74.2377 43.3805 72.8333 44.3731 71.1816 44.4626C69.3232 44.6641 67.2 43.9737 66.2759 42.2425C65.2849 40.2089 65.7171 37.3245 67.7399 36.0783C68.9419 35.2909 70.3361 35.1133 71.7317 34.9354C72.1479 34.8824 72.5656 34.8292 72.9774 34.7598C73.3194 34.7022 73.6585 34.6334 73.9917 34.5439C74.1984 34.4881 74.4021 34.4246 74.6029 34.3508C75.6638 33.9215 75.4106 32.2424 74.3934 31.9329C73.4067 31.6082 72.2818 31.5448 71.298 31.9141C70.6504 32.1511 70.4059 32.7968 70.1775 33.401C70.1324 33.52 70.0887 33.6375 70.0421 33.7499C68.7688 33.7537 67.4939 33.7574 66.2162 33.7499C66.3617 31.8246 67.3411 29.8433 69.2301 29.1269ZM70.7494 37.9814C69.3902 38.6081 69.4236 40.9327 70.8585 41.4478C72.0722 41.8357 73.4766 41.4589 74.4167 40.6119C75.2738 39.7536 75.2826 38.525 75.2913 37.3701L75.2957 36.9942L75.3029 36.6754C73.8724 37.4104 72.1988 37.3245 70.7494 37.9814Z"
              fill="url(#paint11_linear_477_8631)"></path>
        <path fill-rule="evenodd" clip-rule="evenodd"
              d="M31.0103 29.3247C28.5742 28.2613 25.668 28.1791 23.1912 29.1493C21.3284 29.8806 20.3752 31.8396 20.2253 33.7462C21.0068 33.7532 21.7898 33.753 22.5727 33.7528L24.0512 33.7537C24.0978 33.6437 24.1415 33.5282 24.1866 33.4106L24.204 33.3673C24.4223 32.7919 24.6537 32.1794 25.262 31.9367C26.2531 31.5337 27.4013 31.6082 28.4025 31.9292C29.491 32.265 29.6584 34.056 28.4956 34.4105C27.6356 34.6902 26.7217 34.8073 25.8092 34.9243C24.335 35.1133 22.8608 35.3022 21.6122 36.1754C19.7495 37.4217 19.358 40.1008 20.2035 42.0634C21.0781 43.9628 23.3818 44.7052 25.3377 44.4478C26.9283 44.3172 28.2803 43.3545 29.3935 42.2799C29.5056 42.862 29.6293 43.4441 29.7588 44.0224C30.2856 43.9941 30.8182 44.0114 31.3509 44.0288C32.3652 44.0617 33.381 44.0949 34.3604 43.8134C33.9805 43.347 33.3621 42.9777 33.3548 42.3097C33.2427 40.6359 33.2587 38.9583 33.2762 37.2806C33.2922 35.6671 33.3082 34.0538 33.2093 32.4441C33.1234 31.0933 32.2779 29.8283 31.0103 29.3247ZM24.9724 41.4777C23.392 41.0448 23.3818 38.4815 24.8822 37.9218C25.5371 37.6563 26.2269 37.5204 26.9167 37.3847C27.7404 37.2227 28.564 37.0607 29.3237 36.6792L29.312 36.9731L29.3048 37.4248C29.2888 38.5205 29.2727 39.6705 28.5189 40.5224C27.6137 41.4143 26.205 41.8173 24.9724 41.4777Z"
              fill="url(#paint12_linear_477_8631)"></path>
        <path fill-rule="evenodd" clip-rule="evenodd"
              d="M39.1555 31.0299C40.1392 29.7126 41.5319 28.5747 43.2506 28.5298C46.2718 28.2052 49.207 30.429 49.8372 33.3806C50.4629 36.3806 50.3436 39.9066 48.3091 42.3732C46.0928 45.0784 41.2307 45.2724 39.2894 42.1379C39.3388 44.7612 39.301 47.3806 39.3127 50H35.3631V28.8321L37.5008 28.8326L39.1933 28.8357C39.186 29.5671 39.1744 30.2984 39.1555 31.0299ZM41.4694 32.1604C40.1771 32.5634 39.4946 33.8955 39.3127 35.153C39.2312 35.7562 39.1729 36.3879 39.186 37.0146C39.2064 38.0083 39.4058 38.9894 39.9675 39.8246C41.1667 41.5336 44.1514 41.5782 45.2429 39.7275C46.3387 37.8283 46.3489 35.2985 45.2763 33.3842C44.5545 32.0558 42.8184 31.7239 41.4694 32.1604Z"
              fill="url(#paint13_linear_477_8631)"></path>
        <path d="M55.8125 28.8321H51.7625V44.0224L53.1115 44.0231C54.0109 44.024 54.9102 44.0249 55.8125 44.0224V28.8321Z"
              fill="url(#paint14_linear_477_8631)"></path>
    </g>
    <defs>
        <linearGradient id="paint0_linear_477_8631" x1="41.0148" y1="-41.6" x2="108.626"
                        y2="56.4296" gradientUnits="userSpaceOnUse">
            <stop stop-color="white"></stop>
            <stop offset="1" stop-color="#0055FF"></stop>
        </linearGradient>
        <linearGradient id="paint1_linear_477_8631" x1="41.0148" y1="-41.6" x2="108.626"
                        y2="56.4296" gradientUnits="userSpaceOnUse">
            <stop stop-color="white"></stop>
            <stop offset="1" stop-color="#0055FF"></stop>
        </linearGradient>
        <linearGradient id="paint2_linear_477_8631" x1="41.0148" y1="-41.6" x2="108.626"
                        y2="56.4296" gradientUnits="userSpaceOnUse">
            <stop stop-color="white"></stop>
            <stop offset="1" stop-color="#0055FF"></stop>
        </linearGradient>
        <linearGradient id="paint3_linear_477_8631" x1="41.0148" y1="-41.6" x2="108.626"
                        y2="56.4296" gradientUnits="userSpaceOnUse">
            <stop stop-color="white"></stop>
            <stop offset="1" stop-color="#0055FF"></stop>
        </linearGradient>
        <linearGradient id="paint4_linear_477_8631" x1="41.0148" y1="-41.6" x2="108.626"
                        y2="56.4296" gradientUnits="userSpaceOnUse">
            <stop stop-color="white"></stop>
            <stop offset="1" stop-color="#0055FF"></stop>
        </linearGradient>
        <linearGradient id="paint5_linear_477_8631" x1="41.0148" y1="-41.6" x2="108.626"
                        y2="56.4296" gradientUnits="userSpaceOnUse">
            <stop stop-color="white"></stop>
            <stop offset="1" stop-color="#0055FF"></stop>
        </linearGradient>
        <linearGradient id="paint6_linear_477_8631" x1="41.0148" y1="-41.6" x2="108.626"
                        y2="56.4296" gradientUnits="userSpaceOnUse">
            <stop stop-color="white"></stop>
            <stop offset="1" stop-color="#0055FF"></stop>
        </linearGradient>
        <linearGradient id="paint7_linear_477_8631" x1="41.0148" y1="-41.6" x2="108.626"
                        y2="56.4296" gradientUnits="userSpaceOnUse">
            <stop stop-color="white"></stop>
            <stop offset="1" stop-color="#0055FF"></stop>
        </linearGradient>
        <linearGradient id="paint8_linear_477_8631" x1="41.0148" y1="-41.6" x2="108.626"
                        y2="56.4296" gradientUnits="userSpaceOnUse">
            <stop stop-color="white"></stop>
            <stop offset="1" stop-color="#0055FF"></stop>
        </linearGradient>
        <linearGradient id="paint9_linear_477_8631" x1="41.0148" y1="-41.6" x2="108.626"
                        y2="56.4296" gradientUnits="userSpaceOnUse">
            <stop stop-color="white"></stop>
            <stop offset="1" stop-color="#0055FF"></stop>
        </linearGradient>
        <linearGradient id="paint10_linear_477_8631" x1="41.0148" y1="-41.6" x2="108.626"
                        y2="56.4296" gradientUnits="userSpaceOnUse">
            <stop stop-color="white"></stop>
            <stop offset="1" stop-color="#0055FF"></stop>
        </linearGradient>
        <linearGradient id="paint11_linear_477_8631" x1="41.0148" y1="-41.6" x2="108.626"
                        y2="56.4296" gradientUnits="userSpaceOnUse">
            <stop stop-color="white"></stop>
            <stop offset="1" stop-color="#0055FF"></stop>
        </linearGradient>
        <linearGradient id="paint12_linear_477_8631" x1="41.0148" y1="-41.6" x2="108.626"
                        y2="56.4296" gradientUnits="userSpaceOnUse">
            <stop stop-color="white"></stop>
            <stop offset="1" stop-color="#0055FF"></stop>
        </linearGradient>
        <linearGradient id="paint13_linear_477_8631" x1="41.0148" y1="-41.6" x2="108.626"
                        y2="56.4296" gradientUnits="userSpaceOnUse">
            <stop stop-color="white"></stop>
            <stop offset="1" stop-color="#0055FF"></stop>
        </linearGradient>
        <linearGradient id="paint14_linear_477_8631" x1="41.0148" y1="-41.6" x2="108.626"
                        y2="56.4296" gradientUnits="userSpaceOnUse">
            <stop stop-color="white"></stop>
            <stop offset="1" stop-color="#0055FF"></stop>
        </linearGradient>
    </defs>
</svg>