<svg xmlns="http://www.w3.org/2000/svg" xmlns:xlink="http://www.w3.org/1999/xlink" width="152" height="30"
     viewBox="0 0 152 30" fill="none">
    <g style="mix-blend-mode: screen;">
        <path fill-rule="evenodd" clip-rule="evenodd"
              d="M5.06513 3.7138C10.1942 -0.97059 18.6633 -1.2653 24.0974 3.0675C26.0466 4.55657 27.546 6.54718 28.6525 8.71875C26.5688 11.2005 24.5265 13.7185 22.4842 16.2365C21.3053 14.8195 20.1348 13.3958 18.965 11.973C18.0775 10.8935 17.1904 9.81453 16.3004 8.73943C15.8483 8.10015 15.0922 8.13883 14.3568 8.17646C14.0157 8.19391 13.679 8.21114 13.3791 8.16035C13.3161 11.0359 13.3254 13.9115 13.3348 16.7884V16.7886V16.7888V16.789V16.7892V16.7894V16.7896V16.7898C13.34 18.3973 13.3452 20.0052 13.3378 21.6137C14.1811 21.6086 15.0194 21.5985 15.8626 21.5882L15.892 21.5879C15.8953 20.6101 15.8916 19.6323 15.8878 18.6547V18.6545V18.6544V18.6543V18.6542V18.6541V18.654V18.6539C15.8801 16.6231 15.8723 14.5931 15.9281 12.5655C16.9144 13.8135 17.9252 15.0419 18.9361 16.2703C20.0025 17.5663 21.0689 18.8623 22.1068 20.1815C23.5948 18.849 24.8005 17.245 26.007 15.6398C26.8463 14.5232 27.686 13.406 28.6215 12.3794C28.6054 13.811 28.6088 15.244 28.6122 16.677C28.6153 18.0076 28.6184 19.3382 28.606 20.6676C28.6568 21.2774 28.3485 21.8088 28.0535 22.3171C28.0184 22.3776 27.9835 22.4379 27.9493 22.4979C25.7105 26.3033 21.7707 29.1212 17.3759 29.7623C11.7815 30.7654 5.75796 28.1646 2.60401 23.4441C-1.68225 17.4722 -0.549933 8.44989 5.06513 3.7138ZM34.5401 8.12939C34.9667 8.12939 35.3933 8.13069 35.8198 8.13198C36.2464 8.13327 36.6729 8.13457 37.0995 8.13457C37.1017 9.76759 37.1011 11.3997 37.1005 13.0316C37.0996 15.2077 37.0988 17.3836 37.1047 19.5612C38.8498 19.5501 40.595 19.5509 42.3409 19.5516H42.341H42.3412H42.3413H42.3415H42.3416H42.3418H42.3419C43.87 19.5522 45.3986 19.5529 46.9284 19.5456C46.9258 17.6429 46.9258 15.7415 46.9259 13.8401C46.9259 11.9387 46.9259 10.0373 46.9233 8.13457H49.5136C49.5113 9.68564 49.5131 11.2357 49.5149 12.7856V12.7858V12.7859V12.7861V12.7862V12.7864V12.7865V12.7867C49.5171 14.7239 49.5194 16.6609 49.5136 18.5995C49.524 19.6749 49.2861 21.0916 48.0711 21.4225C46.1231 21.7984 44.1457 21.7384 42.1689 21.6784C41.1549 21.6476 40.1411 21.6168 39.1315 21.6448C38.8127 21.627 38.4868 21.6288 38.1591 21.6306H38.1591C37.2483 21.6355 36.3245 21.6405 35.507 21.226C34.6125 20.6728 34.5505 19.5508 34.5401 18.615C34.5379 17.0617 34.5396 15.5083 34.5414 13.955C34.5437 12.0131 34.5459 10.0713 34.5401 8.12939ZM56.5564 8.15525C55.6981 8.15525 54.8347 8.16042 53.9764 8.16559C53.9784 9.86232 53.9765 11.559 53.9747 13.2558V13.2608C53.9718 15.9779 53.9688 18.6951 53.9815 21.4122C54.4902 21.798 55.1083 21.7293 55.7196 21.6614C56.0093 21.6292 56.2976 21.5972 56.5719 21.6138C56.5702 20.1176 56.5719 18.6214 56.5736 17.1254C56.5771 14.1341 56.5805 11.1435 56.5564 8.15525ZM65.6569 8.13038H65.6571C67.8271 8.12501 69.9975 8.11964 72.166 8.15006C73.4121 8.08284 74.7719 8.84289 74.7874 10.2234C74.7899 10.6279 74.8084 11.0379 74.8271 11.45C74.8868 12.7708 74.9474 14.1123 74.4824 15.3576C73.76 16.4491 72.4646 16.4163 71.2536 16.3855C70.9043 16.3767 70.5621 16.368 70.2426 16.3865C70.8475 16.9269 71.4552 17.465 72.0632 18.0033C73.4561 19.2365 74.8503 20.4709 76.2145 21.7379C75.7591 21.7071 75.2997 21.7154 74.8404 21.7237C74.1419 21.7363 73.4437 21.7489 72.7606 21.6241C71.6266 20.6639 70.5807 19.6084 69.5348 18.553C68.8068 17.8183 68.0789 17.0837 67.3214 16.3813C66.1115 16.3865 64.9016 16.3865 63.6969 16.3813C63.6969 16.6778 63.6972 16.9742 63.6975 17.2707C63.6989 18.7529 63.7004 20.235 63.6659 21.7172C62.8179 21.6913 61.97 21.6913 61.122 21.7172C61.0923 18.8185 61.0964 15.9198 61.1005 13.0212C61.1028 11.3906 61.1051 9.75997 61.1014 8.12937C62.6191 8.13789 64.1377 8.13413 65.6564 8.13038H65.6565H65.6567H65.6568H65.6569ZM63.6946 11.9101V11.9138V11.914V11.9143V11.9145V11.9148V11.915C63.6953 12.7805 63.6959 13.6467 63.7021 14.5148C64.735 14.4925 65.7695 14.5036 66.8043 14.5148C68.4061 14.532 70.0088 14.5492 71.6076 14.4424C72.2888 14.1397 72.2861 13.4471 72.2835 12.8041V12.804V12.8038V12.8037V12.8036V12.8034C72.283 12.656 72.2824 12.5112 72.2901 12.3743C72.287 12.2577 72.2879 12.137 72.2888 12.0146C72.2939 11.3282 72.2994 10.5892 71.5973 10.2337C70.0184 10.1531 68.4376 10.1673 66.856 10.1816C65.8015 10.1911 64.7466 10.2006 63.6917 10.182C63.6938 10.7579 63.6942 11.3338 63.6946 11.9101ZM83.4643 8.13343C81.9718 8.134 80.4793 8.13458 78.9868 8.13458C79.0081 9.83682 78.9967 11.5405 78.9853 13.2446C78.9663 16.085 78.9473 18.9264 79.0798 21.7638C79.9071 21.7431 80.7395 21.7224 81.572 21.7069C81.5823 19.9128 81.5875 18.1135 81.5564 16.3193C82.2765 16.3157 82.9965 16.3165 83.7167 16.3173H83.7168H83.717H83.7171H83.7172C85.0553 16.3188 86.3941 16.3204 87.7351 16.2935C87.7299 15.7971 87.7299 14.8096 87.7299 14.3132C86.4438 14.3035 85.1598 14.3039 83.8778 14.3043H83.8777H83.8776H83.8774H83.8773C83.1081 14.3046 82.3397 14.3048 81.572 14.3029C81.5771 12.9327 81.5823 11.5574 81.572 10.1821C82.8881 10.1802 84.2042 10.181 85.5203 10.1819C87.8235 10.1834 90.1266 10.1849 92.4298 10.1717C92.4272 9.83777 92.426 9.50383 92.4247 9.16926L92.4247 9.16522L92.4247 9.16118L92.4247 9.15715L92.4246 9.15314C92.4233 8.81448 92.422 8.47517 92.4195 8.13458C89.4344 8.13113 86.4494 8.13228 83.4643 8.13343ZM96.0609 8.12939C96.8416 8.14491 97.6172 8.14491 98.3979 8.13457C98.5582 12.669 98.5375 17.2241 98.4393 21.7586C97.5655 21.7586 96.6865 21.712 95.8438 21.4794C95.9382 19.546 95.9153 17.6088 95.8924 15.6719V15.6717C95.8627 13.1539 95.833 10.6367 96.0609 8.12939ZM110.186 8.13416C107.365 8.1405 104.544 8.14684 101.722 8.09814C101.542 12.6429 101.542 17.2032 101.748 21.7377C104.18 21.6376 106.609 21.6556 109.039 21.6735H109.039C111.131 21.689 113.223 21.7044 115.315 21.6446C115.319 21.1999 115.318 20.7553 115.317 20.3106C115.316 20.0883 115.315 19.866 115.315 19.6437C113.151 19.6802 110.986 19.6755 108.821 19.6707C107.315 19.6674 105.809 19.6641 104.303 19.6747C104.293 19.3318 104.286 18.9889 104.279 18.646V18.6456C104.259 17.6653 104.24 16.6857 104.163 15.709C105.601 15.6689 107.041 15.672 108.48 15.675H108.48C109.271 15.6766 110.063 15.6783 110.853 15.6728C110.848 14.9965 110.848 14.315 110.848 13.6386V13.6356C110.07 13.632 109.292 13.6328 108.514 13.6337C107.069 13.6352 105.624 13.6367 104.178 13.6098C104.188 13.164 104.212 12.719 104.235 12.2742C104.271 11.5685 104.308 10.8632 104.292 10.156C106.672 10.1898 109.052 10.186 111.432 10.1822C112.692 10.1802 113.952 10.1782 115.212 10.1818C115.21 9.84257 115.208 9.50332 115.207 9.16407L115.207 9.15808C115.206 8.81683 115.204 8.47558 115.202 8.13434C113.53 8.12664 111.858 8.1304 110.187 8.13416H110.186ZM118.462 8.13442C118.893 8.13442 119.324 8.13313 119.756 8.13184C120.189 8.13055 120.622 8.12925 121.057 8.12925C121.064 9.90989 121.064 11.6905 121.063 13.4712C121.062 15.5063 121.062 17.5414 121.073 19.5765C123.175 19.5421 125.278 19.5456 127.381 19.5491C128.749 19.5514 130.117 19.5536 131.486 19.5455C131.491 20.2797 131.486 21.0139 131.47 21.7481C127.854 21.5623 124.231 21.6329 120.612 21.7033H120.612C119.9 21.7172 119.189 21.731 118.477 21.7429C118.451 18.9087 118.456 16.0725 118.46 13.2368V13.2365C118.463 11.5355 118.466 9.83458 118.462 8.13442ZM134.898 9.52522C134.874 13.6047 134.849 17.6841 134.933 21.7636C136.478 21.6141 138.033 21.6412 139.588 21.6683C141.851 21.7077 144.113 21.7471 146.339 21.2414C148.386 20.7398 150.247 19.2094 150.718 17.0947C151.669 13.858 150.242 9.74237 146.845 8.65142C144.288 8.02811 141.664 8.07951 139.04 8.13091C137.659 8.15796 136.278 8.18501 134.907 8.1137C134.904 8.58421 134.901 9.05472 134.898 9.52522ZM137.477 14.6535C137.479 13.1625 137.481 11.6716 137.471 10.1819C138.351 10.2258 139.244 10.204 140.138 10.1821C142.189 10.1319 144.25 10.0814 146.184 10.823C148.526 11.7847 148.774 14.8404 148.071 16.9447C147.595 18.4597 146.003 19.3025 144.503 19.4317C143.072 19.5777 141.635 19.5659 140.199 19.5541C139.294 19.5467 138.39 19.5393 137.487 19.5713C137.473 17.933 137.475 16.2932 137.477 14.6535Z"
              fill="url(#paint0_linear_477_8672)"></path>
    </g>
    <defs>
        <linearGradient id="paint0_linear_477_8672" x1="54.329" y1="-24.9399" x2="78.9976" y2="54.0865"
                        gradientUnits="userSpaceOnUse">
            <stop stop-color="white"></stop>
            <stop offset="1" stop-color="#0055FF"></stop>
        </linearGradient>
    </defs>
</svg>