<svg xmlns="http://www.w3.org/2000/svg" xmlns:xlink="http://www.w3.org/1999/xlink" width="72" height="64"
     viewBox="0 0 72 64" fill="none">
    <g style="mix-blend-mode: screen;">
        <path fill-rule="evenodd" clip-rule="evenodd"
              d="M1.22109 1.49388C2.32998 0.142606 4.13987 0.0745934 5.76471 0.0135344L5.76471 0.0135342C5.88151 0.00914492 5.99736 0.00479156 6.11192 0C11.5553 0.0167618 16.9994 0.0200059 22.4437 0.0232502C33.8766 0.030063 45.3105 0.0368764 56.7415 0.168874C55.6508 1.29738 54.5605 2.42612 53.4701 3.55481L53.4648 3.56034C46.4994 10.7709 39.5361 17.9794 32.4952 25.1102C32.2307 25.3847 31.9661 25.6625 31.7002 25.9416C29.0408 28.7337 26.2617 31.6514 22.3822 32.5666C18.372 33.7388 14.339 32.6848 10.4122 31.6585C9.63899 31.4564 8.86991 31.2555 8.10593 31.0727C7.14081 30.8106 6.16906 30.5758 5.19778 30.3411L5.19776 30.3411C3.44984 29.9187 1.70345 29.4967 0 28.9164C0.0869395 23.3715 0.0697196 17.8231 0.0525052 12.2765C0.0465704 10.3642 0.0406363 8.45221 0.0389711 6.5406C0.0456137 6.24944 0.0413114 5.94695 0.0369359 5.63931C0.0156411 4.14211 -0.00738746 2.523 1.22109 1.49388ZM63.8599 1.95508C65.8929 -1.72117 72.1737 0.454706 71.8619 4.59211C71.927 13.3943 71.9152 22.1994 71.9034 31.0047V31.0074C71.8905 40.6604 71.8775 50.3135 71.9659 59.9631C71.8095 60.1561 71.6568 60.3534 71.5039 60.5509L71.5035 60.5514L71.5035 60.5514C70.9516 61.2644 70.3974 61.9804 69.6601 62.5092C68.4304 62.8978 67.1374 62.9027 65.8516 62.9076H65.8515C65.4394 62.9092 65.0281 62.9107 64.6199 62.9249C60.7558 62.9224 56.8907 62.9295 53.0254 62.9367H53.0249C46.8393 62.948 40.6531 62.9594 34.4694 62.9314C33.2873 58.3848 31.9688 53.8772 30.5983 49.3891C28.8706 44.0825 29.4097 37.8732 33.1444 33.5409C40.3677 25.9706 47.6866 18.4925 55.0048 11.0152L55.005 11.015C57.9589 7.99693 60.9126 4.97896 63.8599 1.95508ZM8.04098 37.5256C5.36815 36.8714 2.69446 36.2169 0.0533703 35.4507C0.0728556 42.7057 0.0598654 49.9672 0.0468752 57.2288L0.046875 57.2289C0.046875 58.8721 0.170283 60.6908 1.37188 61.9443C2.12168 62.8182 3.28249 62.8846 4.36168 62.9464C4.52585 62.9558 4.68813 62.9651 4.84678 62.9771C8.96816 63.0259 13.0914 63.0073 17.2155 62.9886C20.7673 62.9726 24.3197 62.9565 27.872 62.9836C27.1017 60.5961 26.4483 58.1743 25.795 55.7527C25.1153 53.2331 24.4356 50.7137 23.6242 48.2331C22.1368 43.5826 18.0319 40.1532 13.4009 38.8736C11.6213 38.402 9.83135 37.9639 8.04098 37.5256Z"
              fill="url(#paint0_linear_477_8699)"></path>
    </g>
    <defs>
        <linearGradient id="paint0_linear_477_8699" x1="25.8918" y1="-52.4228" x2="112.571" y2="10.5349"
                        gradientUnits="userSpaceOnUse">
            <stop stop-color="white"></stop>
            <stop offset="1" stop-color="#0055FF"></stop>
        </linearGradient>
    </defs>
</svg>