<svg xmlns="http://www.w3.org/2000/svg" xmlns:xlink="http://www.w3.org/1999/xlink" width="82" height="82"
     viewBox="0 0 82 82" fill="none">
    <g style="mix-blend-mode: screen;">
        <path d="M47.2263 0.912214C49.8481 0.235811 52.5632 0.105494 55.2565 0C55.4463 9.64961 54.9238 19.5381 51.4218 28.6386C50.8558 29.9697 50.4297 31.3907 49.5869 32.5791C50.2618 32.4643 50.8154 31.9989 51.456 31.7786C61.0817 27.7605 71.6715 26.9196 82 26.991C81.8383 29.8083 81.633 32.6473 80.8337 35.3685C79.1232 41.7074 74.9557 47.3762 69.2923 50.752C64.8853 53.4359 59.7071 54.7329 54.563 54.7732C54.5412 60.8546 52.952 67.0974 49.2199 71.9967C45.7833 76.595 40.5833 79.6915 35.0411 81.0568C32.326 81.7518 29.5176 81.9659 26.7248 82C26.7372 78.1898 26.6253 74.3734 26.9549 70.5756C27.5148 63.3182 29.0014 56.0174 32.2856 49.4706C22.2556 54.1775 10.9474 55.1455 0 55.0028C0.314117 51.2919 0.917469 47.5655 2.32011 44.0935C4.41007 38.676 8.27278 33.9133 13.3204 30.9843C17.5625 28.5114 22.5013 27.2578 27.4059 27.2982C27.5645 21.3657 28.9392 15.2594 32.5157 10.4098C36.0021 5.54465 41.4261 2.25571 47.2263 0.912214ZM36.9258 11.7316C33.2497 16.0227 31.8035 21.7721 31.6916 27.3137C35.9306 27.1244 40.4184 26.9445 44.1723 24.7353C46.6945 23.2925 48.3926 20.7513 49.3163 18.0488C50.7874 13.6956 50.9118 9.05078 51.0797 4.50212C45.7055 5.11336 40.4277 7.54594 36.9258 11.7316ZM47.1735 27.8132C41.8117 31.3876 35.0629 31.5428 28.8396 31.49C23.481 31.3007 17.9109 32.5574 13.591 35.8401C8.79838 39.3928 5.92157 45.0181 4.80194 50.7799C14.6826 50.51 24.9365 49.1013 33.5576 43.96C39.7746 40.3205 44.5113 34.4594 47.1735 27.8132ZM53.8321 35.4088C49.5745 37.106 45.6122 39.582 42.3311 42.7872C39.0655 46.0234 36.5433 49.9639 34.8265 54.2116C38.795 51.5215 43.712 50.8141 48.402 50.5814C52.2553 50.5069 56.1616 50.8172 59.9527 49.9546C63.8652 49.1324 67.5755 47.2676 70.4741 44.503C74.1906 41.0248 76.5574 36.2404 77.3691 31.2449C69.3887 31.4621 61.287 32.3991 53.8321 35.4088ZM38.7017 56.8117C35.9493 58.1118 33.8966 60.6064 32.8703 63.4392C31.1971 67.932 31.0571 72.7941 30.9109 77.5258C35.9866 76.9363 40.9907 74.7737 44.4802 70.979C48.5886 66.6599 50.212 60.5785 50.3458 54.7484C46.4053 54.8384 42.3156 55.0897 38.7017 56.8117Z"
              fill="url(#paint0_linear_477_8445)"></path>
    </g>
    <defs>
        <linearGradient id="paint0_linear_477_8445" x1="29.5018" y1="-68.2239" x2="136.928"
                        y2="0.0906314" gradientUnits="userSpaceOnUse">
            <stop stop-color="white"></stop>
            <stop offset="1" stop-color="#0055FF"></stop>
        </linearGradient>
    </defs>
</svg>