<svg xmlns="http://www.w3.org/2000/svg" xmlns:xlink="http://www.w3.org/1999/xlink" width="126" height="25"
     viewBox="0 0 126 25" fill="none">
    <g style="mix-blend-mode: screen;">
        <path fill-rule="evenodd" clip-rule="evenodd"
              d="M8.37897 0.0258789H22.9723C23.3704 0.323238 23.7686 0.696197 23.6854 1.24808C23.6931 2.81884 23.6905 4.38865 23.6878 5.95868C23.6861 6.95785 23.6844 7.9571 23.6854 8.95673H0V8.36957C0.171359 6.23262 1.08108 4.15111 2.62331 2.65171C4.14539 1.11452 6.23698 0.222438 8.37897 0.0258789ZM42.6107 0.0258789H44.1605C46.3076 0.217398 48.5755 0.771797 50.1833 2.29387C50.2416 2.69012 49.9724 2.96757 49.7153 3.23257C49.6503 3.29957 49.5861 3.36578 49.5281 3.43291C49.2772 3.67158 49.0375 3.92261 48.798 4.17358L48.7979 4.17364C48.3975 4.59305 47.9973 5.01227 47.5449 5.3733C47.2555 5.53518 47.0051 5.3461 46.7755 5.17268C46.7192 5.13013 46.6641 5.08852 46.61 5.05326C45.0047 3.76303 42.6813 3.54883 40.7812 4.25443C39.5489 4.70299 38.7073 6.03354 38.9668 7.34646C39.0475 8.14025 39.6648 8.72237 40.3276 9.08777C41.4302 9.72814 42.6503 10.1007 43.8691 10.4728C45.3745 10.9324 46.8777 11.3914 48.1547 12.3537C49.4223 13.2911 50.3824 14.7048 50.5235 16.3025C50.7982 18.4369 50.2791 20.7453 48.7545 22.3253C47.1215 24.0767 44.6897 24.8024 42.3638 24.9738H40.7913C38.2814 24.7722 35.6001 24.0414 33.8739 22.0935C33.5639 21.7558 33.947 21.3601 34.1939 21.1283C34.4367 20.9052 34.6754 20.6768 34.9143 20.4483C35.412 19.9721 35.9104 19.4952 36.4468 19.0644C36.7944 18.7785 37.1362 19.0954 37.4052 19.3449C37.4443 19.3812 37.4819 19.4161 37.5178 19.4475C39.3877 21.3349 42.6687 21.7482 44.846 20.1631C46.2546 19.1929 46.4361 16.804 44.9871 15.7884C43.7742 14.8898 42.3503 14.4548 40.9244 14.0191C39.7431 13.6582 38.5604 13.2969 37.4951 12.6712C36.1318 11.8925 34.9298 10.6527 34.5518 9.09029C34.0755 7.09194 34.3275 4.81387 35.6707 3.19099C37.3112 1.0868 40.0403 0.222438 42.6107 0.0258789ZM97.7444 0.0258789H96.0333C92.6616 0.224958 89.247 1.54543 87.0042 4.14103C84.4993 6.96594 83.6299 10.9526 84.1541 14.6343C84.5699 17.7565 86.2709 20.71 88.8463 22.5445C90.9505 24.0716 93.536 24.8226 96.114 24.9738H97.7999C100.874 24.7621 104.125 23.5651 105.947 20.9569C105.885 20.5101 105.512 20.271 105.149 20.0384C105.006 19.947 104.865 19.8565 104.745 19.7549C104.488 19.6084 104.244 19.4266 104 19.2446C103.56 18.9162 103.119 18.587 102.595 18.4621C102.205 18.6456 101.895 18.9498 101.584 19.2552L101.584 19.2553C101.335 19.4993 101.086 19.7441 100.794 19.9288C98.1199 21.8364 94.2719 21.3677 91.772 19.392C88.3247 16.6603 87.6468 11.2373 89.9526 7.57326C91.9031 4.38547 96.2476 3.01963 99.6999 4.38295C100.295 4.59857 100.781 4.98628 101.268 5.37363C101.537 5.58839 101.806 5.80303 102.094 5.98818C102.175 5.9907 102.338 5.99322 102.419 5.99322C103.424 5.39094 104.395 4.70551 105.289 3.94699C105.469 3.54635 105.158 3.27137 104.87 3.01598L104.87 3.01594C104.778 2.934 104.687 2.85408 104.616 2.77267C102.762 1.03892 100.252 0.164478 97.7444 0.0258789ZM55.1075 1.54045C55.0596 1.12718 55.1881 0.567738 55.7199 0.633258L56.087 0.631618C58.8025 0.619457 61.5223 0.607276 64.2374 0.645858C66.6466 0.769337 69.2976 1.27838 70.9734 3.16837C72.5333 4.88197 72.6643 7.407 72.2359 9.57419C71.8529 11.4692 70.3913 13.0341 68.592 13.6868C66.2512 14.5751 63.7374 14.5608 61.2585 14.5466C60.6711 14.5433 60.0856 14.54 59.5049 14.5487C59.4995 15.8693 59.5015 17.1904 59.5036 18.5116V18.5116V18.5117V18.5117V18.5118V18.5118C59.5064 20.246 59.5091 21.9804 59.4948 23.7139C59.5528 24.0692 59.3109 24.3892 58.9404 24.364C58.7564 24.3665 58.5721 24.3695 58.3878 24.3725C57.4387 24.3879 56.4863 24.4034 55.5409 24.3464C55.1169 24.3202 55.1117 23.8481 55.1082 23.5241L55.1075 23.4694C55.11 16.1589 55.11 8.84843 55.1075 1.54045ZM59.5049 4.26457C59.5024 6.47964 59.5024 8.69219 59.5049 10.9073C60.1385 10.8772 60.7838 10.8909 61.4314 10.9046C63.0633 10.9391 64.7092 10.9739 66.2156 10.31C68.3425 9.42551 68.4181 5.97564 66.3794 4.95252C64.8484 4.19062 63.1423 4.22922 61.455 4.26739C60.7983 4.28225 60.1445 4.29704 59.5049 4.26457ZM80.7606 3.03981C81.0177 1.04397 78.5909 -0.160583 76.9302 0.595415C75.5165 1.11705 74.8991 3.06753 75.9096 4.23932C77.1898 5.99324 80.5767 5.3204 80.7606 3.03981ZM109.167 0.842443C109.386 0.641052 109.685 0.631717 109.969 0.622828C110.012 0.621484 110.055 0.62015 110.097 0.618164C114.812 0.625724 119.529 0.630764 124.244 0.618164C124.336 0.629573 124.438 0.629185 124.541 0.628788C124.85 0.627608 125.177 0.626354 125.328 0.935683C125.436 2.00164 125.436 3.09028 125.325 4.15623C125.166 4.45614 124.841 4.45866 124.535 4.46103C124.435 4.4618 124.336 4.46256 124.247 4.47375C122.36 4.46712 120.472 4.46747 118.584 4.46782C116.884 4.46813 115.185 4.46845 113.487 4.46367C113.474 5.88481 113.476 7.30594 113.478 8.72708C113.478 9.24382 113.479 9.76056 113.479 10.2773C115.762 10.2807 118.045 10.2795 120.328 10.2784C121.47 10.2779 122.611 10.2773 123.753 10.2773C123.828 10.288 123.915 10.289 124.005 10.2901C124.299 10.2937 124.628 10.2977 124.703 10.6351C124.804 11.6986 124.801 12.7822 124.695 13.8456C124.525 14.0976 124.226 14.107 123.949 14.1158L123.949 14.1158C123.883 14.1179 123.817 14.12 123.756 14.1253C122.728 14.1253 121.701 14.1246 120.673 14.124C118.275 14.1224 115.876 14.1208 113.479 14.1278C113.476 16.2623 113.476 18.3967 113.479 20.5311C114.416 20.5311 115.353 20.5316 116.289 20.5321L116.3 20.5321H116.301H116.301H116.301C119.122 20.5335 121.944 20.5349 124.764 20.5236C125.184 20.516 125.595 20.6168 125.998 20.7252V24.1196C125.623 24.3489 125.184 24.4044 124.753 24.3867C122.43 24.3681 120.105 24.3721 117.781 24.376C115.07 24.3806 112.358 24.3852 109.649 24.354C109.101 24.3882 109.098 23.863 109.096 23.4399C109.095 23.3646 109.095 23.2926 109.092 23.2275C109.101 19.2208 109.1 15.213 109.099 11.2055V11.2054V11.2054V11.2053C109.098 8.65468 109.097 6.10413 109.099 3.55396C109.102 3.29097 109.098 3.02713 109.093 2.76305C109.082 2.12123 109.071 1.47804 109.167 0.842443ZM78.0791 8.25692C77.4233 8.23094 76.7656 8.20488 76.1608 8.41737C75.9764 8.64348 75.9841 8.93441 75.9917 9.21974V9.21989C75.9951 9.34791 75.9984 9.47481 75.9844 9.59421C75.9945 12.6771 75.9933 15.76 75.9922 18.8436V18.8438V18.844C75.9917 20.3856 75.9911 21.9273 75.9919 23.4693C75.9768 23.7918 76.0045 24.3236 76.4405 24.3437C77.5493 24.4017 78.6707 24.4092 79.777 24.3387C80.1702 24.2795 80.1782 23.8461 80.184 23.5306L80.1852 23.4718C80.1779 21.4436 80.1801 19.4153 80.1823 17.3873V17.3871V17.387C80.1855 14.5293 80.1886 11.672 80.165 8.81553C80.2054 8.25609 79.5224 8.24601 79.1344 8.26113C78.789 8.28504 78.4344 8.27099 78.0791 8.25692ZM0 11.57H23.6854C23.6879 11.9329 23.6879 12.2957 23.6879 12.6561C19.7387 12.6574 15.7902 12.6574 11.8419 12.6574C7.89439 12.6574 3.94719 12.6574 0 12.6586V11.57ZM10.1644 15.2874C6.77609 15.2877 3.38781 15.288 0 15.287V23.5299C0.292319 23.928 0.687958 24.2859 1.21968 24.2153C5.7733 24.2203 10.3294 24.2254 14.8831 24.2103C18.4111 24.18 21.7979 21.8692 23.0655 18.5655C23.4939 17.5272 23.6527 16.4033 23.7182 15.2895C19.2008 15.2866 14.6825 15.287 10.1644 15.2874Z"
              fill="url(#paint0_linear_477_8653)"></path>
    </g>
    <defs>
        <linearGradient id="paint0_linear_477_8653" x1="45.3315" y1="-20.7308" x2="65.8194" y2="45.07"
                        gradientUnits="userSpaceOnUse">
            <stop stop-color="white"></stop>
            <stop offset="1" stop-color="#0055FF"></stop>
        </linearGradient>
    </defs>
</svg>