<svg xmlns="http://www.w3.org/2000/svg" xmlns:xlink="http://www.w3.org/1999/xlink" width="142" height="51"
     viewBox="0 0 142 51" fill="none">
    <mask id="mask0_477_8465" maskUnits="userSpaceOnUse" x="0" y="0" width="142" height="51"
          style="mask-type: alpha;">
        <path d="M63.7539 9.03809C65.1185 9.05581 66.483 9.05581 67.844 9.04517C69.2653 13.2416 70.6192 17.4593 72.0653 21.6451C73.522 17.4451 74.9964 13.2522 76.4495 9.04872C77.3923 9.04872 78.3316 9.04517 79.2743 9.05226C80.6743 13.3373 82.1488 17.5975 83.5558 21.879C84.9842 17.5975 86.4232 13.3196 87.8692 9.04163C89.1416 9.05226 90.4176 9.05226 91.6935 9.04872C89.5315 15.1449 87.3624 21.234 85.211 27.3337C84.1407 27.3266 83.0667 27.3337 81.9964 27.3443C80.5893 23.3039 79.1184 19.2846 77.7716 15.2229C76.2865 19.2456 74.922 23.3145 73.4475 27.3408C72.3842 27.3302 71.321 27.3302 70.2577 27.3408C68.0815 21.2446 65.9372 15.1343 63.7539 9.03809Z"
              fill="#071B52"></path>
        <path d="M123.22 9.04505C124.567 9.05568 125.917 9.04859 127.267 9.04505C124.503 15.1306 121.792 21.2445 119.041 27.3371C117.964 27.3336 116.89 27.33 115.816 27.3265C113.115 21.2197 110.358 15.1412 107.625 9.05214C109.014 9.05568 110.407 9.04859 111.797 9.0415C113.675 13.4719 115.589 17.8845 117.478 22.3078C119.403 17.8916 121.302 13.4648 123.22 9.04505Z"
              fill="#071B51"></path>
        <path d="M98.4529 9.05201C99.5304 9.04847 100.611 9.05201 101.689 9.04492C104.517 15.1305 107.271 21.2479 110.11 27.3299C108.785 27.3299 107.463 27.3299 106.14 27.3405C105.549 25.9831 104.957 24.6292 104.39 23.2611C101.551 23.2646 98.7117 23.2646 95.8727 23.2611C95.2914 24.615 94.6995 25.9618 94.1289 27.3157C92.775 27.3335 91.4246 27.3299 90.0742 27.3405C92.8671 21.2444 95.6813 15.1588 98.4529 9.05201ZM97.1699 20.2236C99.1441 20.2272 101.118 20.2165 103.092 20.2272C102.1 17.9411 101.101 15.655 100.154 13.3512C99.1547 15.6408 98.1977 17.9482 97.1699 20.2236Z"
              fill="#071B51"></path>
        <path d="M128.688 27.3338C128.695 21.2376 128.68 15.145 128.698 9.04883C132.902 9.05592 137.105 9.04174 141.309 9.05592V12.1501L141.199 12.1182C139.303 11.427 137.261 11.6043 135.283 11.583C134.369 11.5795 133.43 11.6539 132.607 12.0969C132.551 13.5784 132.597 15.0635 132.586 16.545C135.074 17.2574 137.679 16.7328 140.221 16.8853C140.228 17.6118 140.238 18.3384 140.249 19.0685C137.718 19.3308 135.003 18.4802 132.611 19.5293C132.561 21.11 132.554 22.6979 132.615 24.2822C133.55 24.7571 134.617 24.7819 135.648 24.7713C137.538 24.7394 139.48 24.8812 141.305 24.2751L141.309 24.5586V27.3303C137.102 27.3338 132.895 27.3267 128.688 27.3338Z"
              fill="#061B52"></path>
        <path d="M132.605 12.0967C133.428 11.6537 134.367 11.5793 135.281 11.5828C137.259 11.6041 139.301 11.4269 141.197 12.118C138.333 12.1464 135.469 12.1995 132.605 12.0967Z"
              fill="#010D34"></path>
        <path d="M132.586 16.545C135.297 16.3997 138.016 16.5167 140.734 16.4777C140.727 17.5162 140.727 18.5582 140.734 19.5967C138.026 19.5541 135.315 19.6605 132.611 19.5293C135.003 18.4802 137.718 19.3308 140.249 19.0686C140.238 18.3384 140.227 17.6119 140.22 16.8853C137.679 16.7329 135.074 17.2574 132.586 16.545Z"
              fill="#020E38"></path>
        <path d="M122.805 31.1616C123.556 31.1616 124.307 31.1652 125.062 31.1687C125.055 31.835 125.055 32.5014 125.055 33.1712C124.304 33.1712 123.556 33.1712 122.808 33.1748C122.808 32.5049 122.808 31.835 122.805 31.1616Z"
              fill="#0B1644"></path>
        <path d="M132.613 24.2817C135.505 24.2002 138.408 24.1966 141.304 24.2746C139.479 24.8807 137.536 24.7389 135.647 24.7708C134.616 24.7814 133.549 24.7566 132.613 24.2817Z"
              fill="#020C38"></path>
        <path d="M74.2617 31.1613C75.0096 31.1613 75.7609 31.1613 76.5123 31.1577C76.5088 31.8347 76.5088 32.5081 76.5088 33.185C75.761 33.178 75.0131 33.1744 74.2688 33.178C74.2653 32.5045 74.2617 31.8347 74.2617 31.1613Z"
              fill="#0C194B"></path>
        <path d="M139.371 30.9487C139.885 30.9416 140.402 30.9309 140.92 30.9097C140.211 31.4945 139.811 32.3309 139.885 33.2595C139.853 37.1724 139.85 41.0853 139.867 44.9982H139.375C139.378 40.3162 139.375 35.6307 139.371 30.9487Z"
              fill="#010D36"></path>
        <path d="M140.923 30.9096L141.309 30.8848V45.0017C140.827 45.0017 140.348 45.0017 139.87 44.9981C139.852 41.0852 139.856 37.1723 139.888 33.2594C139.813 32.3308 140.214 31.4944 140.923 30.9096Z"
              fill="#081C53"></path>
        <path d="M63.7734 31.3739C66.6549 31.3704 69.5365 31.3916 72.418 31.3633C72.4144 31.9091 72.4144 32.4585 72.4144 33.0078C70.1815 32.9937 67.9486 33.0043 65.7157 33.0043C65.7263 34.4291 65.7263 35.8539 65.7263 37.2752C67.8281 37.2716 69.9263 37.2752 72.0281 37.2645C72.0281 37.8033 72.0281 38.342 72.0281 38.8807C69.9299 38.8772 67.8316 38.8914 65.7334 38.8772C65.7193 40.9187 65.7263 42.9602 65.7263 45.0017C65.0742 45.0017 64.4256 45.0017 63.7734 44.9982C63.777 40.4579 63.777 35.9142 63.7734 31.3739Z"
              fill="#091A4E"></path>
        <path d="M91.6568 35.996C93.3616 34.5605 96.2112 34.9185 97.4376 36.8147C97.4269 36.4426 97.4057 35.6947 97.395 35.319C97.8452 35.3296 98.2988 35.3367 98.749 35.3438C98.8376 38.5656 98.834 41.7838 98.795 45.002C98.4441 45.002 97.7388 44.9949 97.3879 44.9949C97.3986 44.4916 97.4128 43.9919 97.4305 43.4921C95.8604 45.8314 91.9687 45.6187 90.6396 43.1483C89.47 40.919 89.6224 37.6866 91.6568 35.996ZM93.2872 37.0096C91.6675 38.0694 91.6001 40.4086 92.2062 42.0638C92.8902 43.8608 95.6973 44.1727 96.7571 42.5742C97.629 41.1281 97.6502 39.161 96.7642 37.7114C96.034 36.5914 94.4107 36.3965 93.2872 37.0096Z"
              fill="#091A4E"></path>
        <path d="M80.9463 36.9067C81.843 35.6131 83.406 34.8723 84.9832 35.1629C86.4789 35.2551 87.6201 36.5984 87.691 38.0586C87.8151 40.3659 87.7123 42.6839 87.7442 44.9948C87.1062 44.9983 86.4647 44.9983 85.8267 45.0019C85.8161 43.0915 85.8374 41.1847 85.8267 39.2743C85.8126 38.4733 85.77 37.5128 85.0328 37.013C83.5655 36.0986 81.2865 37.0875 81.1483 38.8738C81.0313 40.9118 81.1376 42.9568 81.1057 44.9948C80.4607 44.9983 79.8156 45.0019 79.1741 45.0054C79.128 41.7801 79.2911 38.5477 79.043 35.3295C79.6384 35.3331 80.2338 35.3331 80.8293 35.3401C80.8683 35.8612 80.9073 36.3857 80.9463 36.9067Z"
              fill="#081A51"></path>
        <path d="M103.887 36.9456C104.954 35.2798 107.183 34.6596 108.98 35.457C110.167 35.9603 110.667 37.3213 110.692 38.5299C110.749 40.6848 110.696 42.8433 110.717 44.9982C110.072 44.9982 109.43 45.0018 108.789 45.0018C108.757 42.8398 108.845 40.6742 108.75 38.5122C108.729 37.5482 107.945 36.6302 106.935 36.6869C105.588 36.5203 104.224 37.5198 104.096 38.8914C103.951 40.9223 104.078 42.9603 104.039 44.9912C103.405 44.9982 102.771 45.0053 102.136 45.0124C102.094 41.7871 102.232 38.5583 102.016 35.3365C102.611 35.3365 103.207 35.3365 103.805 35.3365C103.834 35.8717 103.859 36.4104 103.887 36.9456Z"
              fill="#081A4C"></path>
        <path d="M113.998 36.7543C115.752 34.6135 119.151 34.6986 121.228 36.3219C121.015 36.7933 120.806 37.2611 120.597 37.7325C119.293 36.7614 117.312 36.1659 115.943 37.3426C114.565 38.6753 114.554 41.135 115.628 42.652C116.939 44.1689 119.211 43.6018 120.629 42.5527C120.824 43.0241 121.019 43.499 121.217 43.9704C119.481 45.2003 117.06 45.5689 115.142 44.5411C112.491 43.0347 112.194 39.0191 113.998 36.7543Z"
              fill="#0B1A4F"></path>
        <path d="M74.4407 35.333C75.0716 35.333 75.706 35.3366 76.3404 35.3366C76.344 38.5583 76.3369 41.7801 76.3404 45.0018C75.706 44.9983 75.068 44.9983 74.4336 44.9947C74.4442 41.7765 74.4336 38.5548 74.4407 35.333Z"
              fill="#091543"></path>
        <path d="M98.75 35.3435L99.2923 35.3223C99.2958 38.544 99.2887 41.7693 99.2923 44.9946L98.7961 45.0017C98.8351 41.7835 98.8386 38.5653 98.75 35.3435Z"
              fill="#010D3A"></path>
        <path d="M122.988 35.3401C123.619 35.3366 124.254 35.3366 124.888 35.333C124.909 38.5548 124.881 41.7765 124.895 44.9947C124.257 44.9983 123.623 44.9983 122.988 44.9983C122.995 41.7801 122.988 38.5583 122.988 35.3401Z"
              fill="#081848"></path>
        <path d="M129.079 35.8468C130.805 34.5851 133.442 35.0033 134.655 36.7896C134.647 36.421 134.633 35.6873 134.623 35.3223C135.261 35.3329 135.902 35.3436 136.54 35.3542C136.512 38.5724 136.537 41.7906 136.529 45.0053C135.884 45.0053 135.246 44.9982 134.608 44.9947C134.623 44.4878 134.64 43.9845 134.658 43.4777C133.109 45.8417 129.182 45.6149 127.864 43.141C126.652 40.8478 126.875 37.4772 129.079 35.8468ZM130.749 36.8889C128.927 37.782 128.81 40.2914 129.413 41.9855C130.029 43.8428 132.889 44.2043 133.971 42.5952C134.825 41.2271 134.846 39.3734 134.137 37.938C133.538 36.7258 131.929 36.3856 130.749 36.8889Z"
              fill="#0A1A4F"></path>
        <path d="M35.8359 0.510378C36.3853 0.0815187 37.0694 0.0106329 37.7428 0C37.7286 0.499745 37.7286 0.99949 37.6612 1.49569C37.2218 1.71189 36.7256 1.65164 36.2577 1.6729C36.1514 1.38227 35.9387 0.801009 35.8359 0.510378Z"
              fill="#3ABAF0"></path>
        <path d="M40.2075 0.51042C40.7923 0.407636 41.2566 0.864849 41.7386 1.10586C41.5579 1.45675 41.3948 1.81472 41.1715 2.14079C40.7462 2.41725 40.1898 2.2294 39.7148 2.2932C39.7432 1.67295 39.605 0.918014 40.2075 0.51042Z"
              fill="#40B9F0"></path>
        <path d="M38.6713 3.60791C39.2739 3.62918 39.8764 3.65753 40.4754 3.69297C40.4399 4.37702 40.4966 5.27373 39.6141 5.42613C38.5615 5.3836 38.6501 4.37348 38.6713 3.60791Z"
              fill="#45B6F2"></path>
        <path d="M41.8829 4.831C42.1027 4.71404 42.5386 4.48366 42.7584 4.3667C42.9958 4.48012 43.4672 4.69986 43.7047 4.81328C43.6799 5.13227 43.6302 5.77378 43.6054 6.09277C43.3113 6.12112 42.7229 6.17429 42.4323 6.1991C42.6308 6.28416 42.8328 6.36922 43.0348 6.45429L42.4748 6.30543C42.411 6.57125 42.2905 7.10643 42.2303 7.37226C42.0211 7.66643 41.9325 7.99251 41.968 8.34694C41.968 8.50288 41.9715 8.81478 41.9715 8.97073C41.4576 8.80061 40.9437 8.63048 40.4298 8.45681C40.4191 7.26593 41.6596 7.02492 42.2232 6.20973C42.1204 5.74897 41.9999 5.29176 41.8829 4.831Z"
              fill="#39B0F7"></path>
        <path d="M41.9685 8.34675C41.9331 7.99232 42.0217 7.66625 42.2308 7.37207C42.6739 7.85764 42.5888 8.18017 41.9685 8.34675Z"
              fill="#85BAD4"></path>
        <path d="M43.5743 8.2439C44.1024 8.23326 44.6269 8.22972 45.155 8.23326C45.1657 8.87832 45.2826 10.25 44.2619 9.99123C43.3687 9.92389 43.6026 8.85706 43.5743 8.2439Z"
              fill="#3CADF3"></path>
        <path d="M16.9717 8.95314C17.514 8.94605 18.0527 8.94605 18.5914 8.94959C18.5808 9.60883 18.4745 10.2574 18.1059 10.8174C18.2193 11.2144 18.3433 11.6114 18.4355 12.0119C18.081 12.6817 17.3013 12.54 16.6775 12.5612C16.6492 11.8665 16.6385 11.1116 17.3403 10.7217C17.0603 10.1724 16.9823 9.56276 16.9717 8.95314Z"
              fill="#3E98ED"></path>
        <path d="M19.9123 8.55225C20.7239 8.59832 21.369 8.95984 21.6667 9.72895C21.3583 9.99832 21.05 10.2677 20.7452 10.537C20.8657 10.7568 21.1067 11.1963 21.2307 11.416C20.9118 11.735 20.6849 12.3198 20.1391 12.2525C19.3842 12.3375 19.4232 11.4054 19.168 10.9305C19.3594 10.8277 19.7386 10.6221 19.93 10.5193C19.8981 9.86363 19.8945 9.20794 19.9123 8.55225Z"
              fill="#3A91F4"></path>
        <path d="M22.4068 9.29648C22.9526 9.12281 23.5091 8.99876 24.0726 8.91016C24.1187 9.37091 24.1612 9.83167 24.2038 10.2889C23.9911 10.3952 23.5623 10.6079 23.3496 10.7107C23.5162 11.0509 23.6828 11.3912 23.8493 11.7314C23.4134 12.0008 22.8073 12.8195 22.2757 12.2737C21.5243 11.8236 22.1056 10.9623 22.4742 10.4661C22.4564 10.1719 22.4245 9.58712 22.4068 9.29648Z"
              fill="#3E87F0"></path>
        <path d="M14.3425 9.64062C14.7997 9.67607 15.2534 9.71505 15.707 9.75404C15.6858 10.4026 15.5192 11.03 15.2356 11.6148C15.8807 12.3024 15.7708 13.7591 14.5693 13.5571C13.5025 13.2842 13.9739 12.1429 14.3886 11.5156C14.2184 11.1966 14.0448 10.874 13.8711 10.5551C13.9881 10.3247 14.2255 9.871 14.3425 9.64062Z"
              fill="#439BE6"></path>
        <path d="M25.2609 9.66895C25.7323 9.68667 26.2001 9.70793 26.6715 9.7292C26.7495 10.4097 26.6042 11.0548 26.1399 11.5722C26.0194 12.2279 25.9768 13.0963 25.0801 12.9935C23.9956 12.8305 24.2224 11.5935 24.9242 11.0831C25.0376 10.6117 25.1475 10.1403 25.2609 9.66895Z"
              fill="#3A88E8"></path>
        <path d="M41.9462 10.3315C42.563 10.3989 43.4136 10.1366 43.6652 10.9093C43.7397 11.5012 43.2257 11.8698 42.8997 12.2774C42.6445 12.1285 42.1341 11.8343 41.8789 11.6855C41.9002 11.2353 41.9214 10.7817 41.9462 10.3315Z"
              fill="#3EACF9"></path>
        <path d="M27.3557 10.9732C27.781 10.8953 28.2311 10.6365 28.6635 10.8315C28.9896 11.1292 29.0463 11.597 29.2129 11.9869C28.986 12.1074 28.5324 12.3484 28.3055 12.4689C28.3197 12.7418 28.3481 13.2841 28.3587 13.557C27.7704 13.7378 27.065 14.2801 26.622 13.5535C26.2605 12.873 26.902 12.3768 27.3273 11.9479C27.3344 11.7034 27.3486 11.2178 27.3557 10.9732Z"
              fill="#3980F3"></path>
        <path d="M10.6641 11.8238C11.1709 11.4977 11.6919 10.7286 12.3618 11.1539C13.0316 11.4445 12.8651 12.4263 12.22 12.6461C12.6347 13.3124 13.216 14.0815 12.7339 14.879C11.8372 15.5524 10.6676 14.4501 11.3587 13.5711C11.4615 13.3939 11.6706 13.043 11.7734 12.8693C11.3977 12.5256 11.0291 12.1747 10.6641 11.8238Z"
              fill="#449EE9"></path>
        <path d="M44.4022 12.412C44.5227 11.5684 45.5789 11.7492 46.1956 11.7492C46.1318 12.3872 46.309 13.2555 45.5612 13.5461C44.9409 13.578 44.2108 13.1137 44.4022 12.412Z"
              fill="#43A7EA"></path>
        <path d="M29.5834 12.1962C29.9839 12.1785 30.3844 12.1608 30.7885 12.1431C30.9054 12.3841 31.1393 12.859 31.2563 13.0965C30.9905 13.38 30.7247 13.66 30.4588 13.9365C30.4659 14.1881 30.4801 14.6843 30.4872 14.9324C29.9733 15.0033 29.1794 15.5952 28.8356 14.936C28.3323 14.3547 28.9915 13.7238 29.3105 13.2524C29.4026 12.9015 29.4948 12.5471 29.5834 12.1962Z"
              fill="#3A7AEE"></path>
        <path d="M8.12073 13.1811C8.66656 13.174 9.21238 13.174 9.7582 13.1811C9.7582 13.9325 9.55617 14.6413 9.13086 15.2616C9.54908 15.5345 9.96377 15.811 10.3714 16.0945C10.226 16.4844 10.0807 16.8778 9.93187 17.2677C9.48529 17.2039 9.03516 17.1472 8.59567 17.0408C8.27668 16.3426 8.78352 15.7082 9.08478 15.1163C8.21998 14.7973 8.06048 14.0069 8.12073 13.1811Z"
              fill="#3AA7E6"></path>
        <path d="M42.7035 13.6669C43.0969 13.394 43.5895 13.4117 44.0326 13.5251C44.2204 13.9965 44.3268 14.4927 44.4402 14.9818C43.7987 15.0172 43.1571 15.0314 42.5156 15.0314C42.5652 14.5742 42.6007 14.1134 42.7035 13.6669Z"
              fill="#3DA1F1"></path>
        <path d="M30.844 14.9354C31.1701 14.3683 31.5847 13.3582 32.407 13.8615C33.2399 14.2159 32.6374 15.2509 32.1837 15.7081C31.8293 16.0448 31.7159 16.8635 31.0885 16.743C30.3726 16.9238 30.3371 15.9101 30.043 15.506C30.2414 15.3643 30.642 15.0772 30.844 14.9354Z"
              fill="#3B79F3"></path>
        <path d="M19.8562 14.5567C20.9691 14.2873 21.0967 15.5314 20.923 16.3146C21.079 16.3855 21.3944 16.5273 21.5504 16.5982L21.4121 17.1724C21.7276 16.8711 22.0324 16.5557 22.3407 16.2473C22.0147 15.9957 21.6886 15.744 21.359 15.4959C21.6496 14.9572 21.8233 14.181 22.603 14.2731C23.3367 14.5106 23.2835 15.2549 23.2587 15.8752C23.521 16.2048 23.7407 16.5592 23.9179 16.9384C23.7088 17.6331 22.9822 17.704 22.3939 17.8741L22.4329 17.3673C22.2628 17.3248 21.9225 17.2362 21.7524 17.1936C21.483 17.7607 21.1498 18.427 20.402 18.1187C19.7924 17.743 19.9483 17.0519 20.1504 16.4883C19.2678 16.187 18.7929 14.9891 19.8562 14.5567Z"
              fill="#3871F8"></path>
        <path d="M23.5586 15.4817C23.9449 14.5389 24.8912 14.3191 25.632 15.0032C25.5717 15.3257 25.4548 15.9708 25.3981 16.2969C25.8907 15.8715 26.2771 14.9217 27.0639 15.2796C27.6026 15.3718 27.4715 16.1905 27.6983 16.5839C28.1236 16.4882 28.556 16.4209 28.9884 16.3748C29.2826 16.8356 29.4173 17.3743 29.5945 17.8847C30.0234 18.0158 30.4522 18.147 30.8846 18.2817C30.8917 18.8487 30.8953 19.4194 30.8846 19.99C31.7211 20.1566 32.0755 20.7662 32.0401 21.5814C31.7672 21.7232 31.2143 22.0102 30.9413 22.152C30.392 21.7125 30.1014 21.1171 30.1722 20.4082C29.5591 20.1353 29.1834 19.6037 28.9388 18.9976C28.7297 18.9692 28.315 18.9161 28.1059 18.8877C27.9606 18.6219 27.8153 18.3561 27.6735 18.0903C26.6173 18.4057 25.7561 17.6366 26.0006 16.5627C25.7631 17.0305 25.5044 17.4877 25.228 17.9343C24.955 17.7748 24.4128 17.4558 24.1399 17.2963C24.1647 17.0412 24.2107 16.5308 24.2356 16.272C24.0654 16.0771 23.7287 15.6801 23.5586 15.4817Z"
              fill="#395DF2"></path>
        <path d="M44.7966 15.889C44.7753 14.9746 45.8245 15.0455 46.4553 14.9746C46.4766 15.5701 46.4908 16.169 46.4943 16.768C45.8599 16.7538 44.63 16.8779 44.7966 15.889Z"
              fill="#3CA3F4"></path>
        <path d="M17.0146 15.6164C17.6703 14.7942 19.049 15.3896 18.5847 16.5131C19.0313 17.1972 20.1867 18.1471 19.127 18.8488C18.3154 19.1962 17.8759 18.4022 17.486 17.8387L18.1736 17.7785C17.6986 17.1157 16.6956 16.5698 17.0146 15.6164Z"
              fill="#3C7BEF"></path>
        <path d="M32.855 15.5986C33.3583 15.666 33.9325 15.6802 34.2195 16.187C34.1026 17.2574 33.1208 17.9308 32.4899 18.7105C32.1887 18.3065 31.3593 17.9804 31.6145 17.3566C31.9937 16.747 32.4474 16.187 32.855 15.5986Z"
              fill="#3973F1"></path>
        <path d="M5.405 17.4697C4.86272 16.5978 5.60702 15.9209 6.32651 15.5381C6.79081 16.1229 6.9255 16.8424 6.93259 17.569C6.42221 17.5512 5.91183 17.5442 5.405 17.4697Z"
              fill="#3FB0F0"></path>
        <path d="M43.0055 16.424C43.4769 16.3532 43.9553 16.3602 44.4338 16.3496C44.3417 16.9521 44.6075 17.8063 43.8738 18.0863C43.4201 17.9871 42.97 17.8737 42.5234 17.7425C42.6617 17.2959 42.8212 16.8564 43.0055 16.424Z"
              fill="#3D9DEF"></path>
        <path d="M14.4844 17.4309C14.6403 17.1367 14.9451 16.5412 15.1011 16.2471C15.8773 16.2896 16.8094 16.7007 16.4089 17.6364C15.9021 18.5579 15.016 17.9483 14.4844 17.4309Z"
              fill="#4084F2"></path>
        <path d="M12.8175 17.7817C13.3385 17.8668 13.8595 17.966 14.3805 18.0688C14.4231 18.8946 14.0615 19.5326 13.2889 19.8658C12.6545 19.3058 12.5233 18.5544 12.8175 17.7817Z"
              fill="#3E87F6"></path>
        <path d="M25.9738 38.0619C25.3535 37.5764 25.832 36.9278 26.3282 36.584C26.4168 36.5733 26.5976 36.5556 26.6862 36.545L27.0832 36.5024C27.1824 36.6513 27.3738 36.9419 27.4695 37.0872L27.8097 37.6153C27.2958 37.991 26.5551 38.8133 25.9738 38.0619Z"
              fill="#3E87F6"></path>
        <path d="M32.7041 20.2731C32.2292 19.0432 33.2712 17.987 34.3026 17.5015C35.4332 17.8453 35.1674 19.0468 34.2991 19.5288C34.7421 19.8088 35.6069 19.8301 35.5325 20.5283C35.5396 20.9749 35.1178 21.2726 34.9264 21.6412C35.731 22.4068 35.2986 23.2964 34.6677 24.0052C35.0257 24.9338 34.3097 26.2346 33.2181 25.9014C32.2611 25.5045 32.8176 24.4766 33.2464 23.8954C33.1862 23.2857 33.3102 22.6974 33.5619 22.1445C33.4024 21.9921 33.0798 21.6908 32.9168 21.542C33.1826 21.0847 33.4662 20.6417 33.7674 20.2093C33.5016 20.2235 32.97 20.2554 32.7041 20.2731Z"
              fill="#3962F8"></path>
        <path d="M45.2318 19.8836C44.3315 19.515 44.5619 17.9697 45.6004 18.0831C46.412 18.0618 46.412 19.0046 46.5822 19.5646C46.1356 19.6886 45.6855 19.795 45.2318 19.8836Z"
              fill="#3C9FFB"></path>
        <path d="M6.1526 18.4692C6.61336 18.5011 7.07057 18.5366 7.53133 18.5756C7.51006 19.1143 7.48525 19.6566 7.4569 20.1989C7.03867 20.213 6.62399 20.2272 6.20931 20.2414C6.0888 20.05 5.85134 19.6601 5.73438 19.4652C5.8407 19.2171 6.04982 18.7173 6.1526 18.4692Z"
              fill="#3CA9F9"></path>
        <path d="M15.6948 19.4299C15.6452 18.8664 16.145 18.5155 16.4356 18.1079C16.6943 18.239 17.2118 18.4978 17.4705 18.6289C17.4493 19.0897 17.4245 19.5504 17.3961 20.0147C16.79 19.9403 15.9323 20.2026 15.6948 19.4299Z"
              fill="#3B80FA"></path>
        <path d="M21.8576 19.2918C22.6161 18.7389 23.4774 18.3136 24.328 18.9409C24.9872 18.5475 26.0789 18.4093 26.2065 19.4052C26.4227 20.4756 25.1042 20.4721 24.4024 20.2488C23.9169 20.3764 23.4277 20.504 22.9422 20.628C22.4672 20.8584 21.9852 21.0746 21.4996 21.2802C21.4252 21.4928 21.2799 21.9217 21.209 22.1343C20.167 22.3151 19.3872 21.631 18.7422 20.9186C18.8981 20.667 19.2065 20.1673 19.3624 19.9192C19.7736 19.99 20.1812 20.0645 20.5923 20.146C20.6065 19.9298 20.6348 19.4938 20.649 19.2741L20.89 19.3981C21.2267 19.5895 21.5493 19.5541 21.8576 19.2918Z"
              fill="#365DF4"></path>
        <path d="M20.8906 19.3977C21.1423 18.8696 21.4648 18.8342 21.8582 19.2914C21.5499 19.5537 21.2273 19.5891 20.8906 19.3977Z"
              fill="#5E6CC1"></path>
        <path d="M42.1602 19.6423C42.5819 19.3588 42.9505 18.8732 43.5141 18.9016C44.2619 19.1816 44.0245 20.0109 44.0882 20.6312C43.6204 20.6525 43.149 20.6773 42.6812 20.695C42.5536 20.4327 42.2913 19.9082 42.1602 19.6423Z"
              fill="#399AF8"></path>
        <path d="M2.54579 19.5146C3.15186 19.5324 3.75794 19.5643 4.36047 19.5962C4.3073 20.0321 4.26477 20.4716 4.17262 20.9005C3.66578 21.1698 3.08452 21.0635 2.53516 21.0777C2.53516 20.5567 2.5387 20.0357 2.54579 19.5146Z"
              fill="#47ADE9"></path>
        <path d="M10.8648 21.1595C10.3437 20.5534 11.0739 19.9331 11.4567 19.5078C11.6835 19.646 12.1336 19.919 12.3569 20.0536C12.4207 20.2734 12.5448 20.7164 12.6085 20.9397C12.1088 21.2622 11.3468 21.8364 10.8648 21.1595Z"
              fill="#378BF5"></path>
        <path d="M13.8398 19.9155C14.3609 19.997 15.1052 19.6745 15.4631 20.1743C16.1117 20.7484 15.169 21.9712 14.4636 21.5459C13.6626 21.4077 13.9639 20.4826 13.8398 19.9155Z"
              fill="#4087EF"></path>
        <path d="M52.1159 20.3193C52.605 20.2377 53.0976 20.2165 53.5903 20.1846C53.608 20.6772 53.6293 21.1699 53.6435 21.6661C53.406 21.7618 52.9275 21.9532 52.69 22.0489C52.4667 21.9213 52.0202 21.6625 51.7969 21.5349C51.8819 21.1238 51.9351 20.702 52.1159 20.3193Z"
              fill="#45B6F3"></path>
        <path d="M44 21.5211C44.3154 20.9328 45.1165 20.6492 45.6304 21.1702C45.7544 21.5317 45.8253 21.911 45.9139 22.2831C45.6233 22.4355 45.042 22.7333 44.7549 22.8821C44.4608 22.4603 44.0106 22.0776 44 21.5211Z"
              fill="#3C99F8"></path>
        <path d="M42.0696 21.3013C42.4843 21.4218 42.9061 21.5423 43.303 21.723C43.3456 22.1767 43.3349 22.6339 43.3349 23.0876C42.8848 23.1089 42.4382 23.1266 41.9881 23.1408C41.8747 22.921 41.6408 22.4815 41.5273 22.2618C41.662 22.0208 41.9314 21.5387 42.0696 21.3013Z"
              fill="#3996EC"></path>
        <path d="M12.4309 21.7656C12.8846 21.7443 13.3382 21.7266 13.7919 21.7124C13.8982 21.9321 14.1073 22.3681 14.2137 22.5843C14.0932 22.8289 13.8557 23.3215 13.7352 23.5661C13.2993 23.4562 12.8385 23.3889 12.4557 23.1408C12.4132 22.6835 12.4274 22.2228 12.4309 21.7656Z"
              fill="#4286EB"></path>
        <path d="M17.4765 21.893C18.0613 20.6489 19.4968 21.6591 20.2163 22.2332C20.5069 22.9102 19.9008 23.3178 19.4968 23.7502C18.8305 23.1548 17.317 23.0378 17.4765 21.893Z"
              fill="#3A6BF7"></path>
        <path d="M9.30514 23.1441C8.38362 22.7684 9.92184 21.2053 10.3153 22.0347C9.96792 22.3927 9.62058 22.7577 9.30514 23.1441Z"
              fill="#94BADF"></path>
        <path d="M3.38396 22.5878C3.56826 22.4637 3.93332 22.2121 4.11408 22.0845C4.35864 22.1837 4.84066 22.3822 5.08167 22.4814C5.07104 22.9776 5.05332 23.4738 5.03205 23.9665C4.43307 23.8921 3.83763 23.7999 3.24219 23.6936C3.29181 23.325 3.33788 22.9564 3.38396 22.5878Z"
              fill="#40B2F1"></path>
        <path d="M9.30345 23.144C9.61889 22.7577 9.96623 22.3926 10.3136 22.0347C10.9622 22.3147 11.1288 22.7364 10.8062 23.3071C10.544 23.9202 9.7075 23.6544 9.21484 23.8493L9.30345 23.144Z"
              fill="#3795F9"></path>
        <path d="M20.5 23.4101C20.8013 22.5417 21.4463 22.0739 22.3785 22.2263L22.1516 22.7295C22.1233 22.9351 22.0666 23.3463 22.0382 23.5518L22.1233 24.2252L21.4711 23.9098C21.4251 23.885 21.3365 23.8425 21.2904 23.8176C21.0919 23.7149 20.6985 23.5128 20.5 23.4101Z"
              fill="#3A55FF"></path>
        <path d="M22.1525 22.7298C22.7869 22.6022 22.6168 23.8605 22.0391 23.5521C22.0674 23.3465 22.1241 22.9354 22.1525 22.7298Z"
              fill="#0B1644"></path>
        <path d="M16.3885 24.2357C16.0305 23.5623 16.8102 23.1016 17.2072 22.7046C17.5297 22.9704 17.8487 23.2362 18.1677 23.5021C18.3733 23.5056 18.788 23.5091 18.9935 23.5127C19.1388 23.7608 19.4295 24.257 19.5712 24.5051C19.2842 24.778 18.9864 25.0367 18.6816 25.2848C17.87 25.097 17.0158 24.7993 16.3885 24.2357Z"
              fill="#3772FE"></path>
        <path d="M42.7617 24.3776C43.226 23.7113 43.9278 23.4171 44.7217 23.4348C44.7359 24.0374 45.0655 25.1113 44.1794 25.2247C43.5592 25.4905 43.2296 24.6044 42.7617 24.3776Z"
              fill="#4391F3"></path>
        <path d="M0 23.8533C0.457213 23.8497 0.914427 23.8462 1.37518 23.8462C1.48151 24.0659 1.70126 24.5019 1.80759 24.7181C1.69417 24.9591 1.46379 25.4447 1.35037 25.6892C0.953414 25.6325 0.552909 25.5829 0.159493 25.4907C-0.00708856 24.9626 0.0212657 24.3991 0 23.8533Z"
              fill="#3EB7E9"></path>
        <path d="M10.543 24.7323C10.9789 24.3991 11.3511 23.8958 11.9288 23.8179C12.7652 24.0695 12.4782 25.0158 12.5136 25.6786C11.6913 25.7566 10.9966 25.4341 10.543 24.7323Z"
              fill="#3694F2"></path>
        <path d="M40.3906 23.8884C40.8337 23.7679 41.2838 23.6651 41.7339 23.5801C42.6271 23.9664 42.3931 25.4656 41.3547 25.3735C40.5501 25.3948 40.5643 24.4413 40.3906 23.8884Z"
              fill="#378EFF"></path>
        <path d="M52.8633 23.8813C53.4339 23.8813 54.0081 23.892 54.5787 23.9026C54.5787 24.4662 54.5752 25.0297 54.5681 25.5932C54.0223 25.5153 53.2886 25.8024 52.9377 25.2424C52.8739 24.7922 52.8775 24.335 52.8633 23.8813Z"
              fill="#46A8DF"></path>
        <path d="M19.4922 25.5971C19.6056 24.6118 20.1585 23.6796 21.2891 23.8179C21.3352 23.8427 21.4238 23.8852 21.4699 23.91C21.5585 24.1191 21.7357 24.5338 21.8243 24.7429C21.4415 24.5232 21.0481 24.3212 20.6476 24.1369C20.2861 24.5232 19.9742 24.9556 19.6552 25.3774L19.4922 25.5971Z"
              fill="#738AD3"></path>
        <path d="M19.6562 25.3772C19.9752 24.9554 20.2871 24.523 20.6487 24.1367C21.0492 24.321 21.4426 24.523 21.8254 24.7428L22.2046 24.9625C22.0167 25.1823 21.6446 25.6218 21.4603 25.838C20.8755 26.3661 20.2092 25.5403 19.6562 25.3772Z"
              fill="#3853E3"></path>
        <path d="M50.1649 24.6255C50.53 24.5936 50.895 24.5617 51.2636 24.5298C51.3806 25.1146 51.4727 25.7065 51.5472 26.3019C51.0581 26.3303 50.5689 26.3551 50.0798 26.3799C49.9806 26.1389 49.7786 25.6604 49.6758 25.4229C49.7998 25.2245 50.0444 24.824 50.1649 24.6255Z"
              fill="#43B0EF"></path>
        <path d="M7.76953 25.2776C8.19485 25.0118 8.56345 24.4979 9.12699 24.59C9.85357 24.8665 9.60902 25.6675 9.66573 26.27C9.20851 26.3125 8.7513 26.3551 8.29763 26.3976C8.16649 26.1176 7.90421 25.5576 7.76953 25.2776Z"
              fill="#3A99F0"></path>
        <path d="M15.1211 25.8167C15.4401 25.4658 15.791 25.1539 16.1702 24.8774C16.5884 25.0015 16.9996 25.1539 17.3965 25.3417C17.8608 25.5438 18.6051 25.4764 18.7327 26.1002C18.7008 26.3377 18.6441 26.8091 18.6158 27.043C18.3641 27.0891 17.8573 27.1848 17.6056 27.2308C17.4036 27.0536 17.198 26.8764 16.9925 26.7028C16.2553 26.6709 15.6067 26.366 15.1211 25.8167Z"
              fill="#3472F2"></path>
        <path d="M39.449 25.6322C39.8956 25.5754 40.3457 25.579 40.7923 25.5684C40.8136 26.0291 40.8313 26.4899 40.849 26.9506C40.6257 27.0605 40.1756 27.2803 39.9523 27.3901C39.7113 27.2519 39.2293 26.979 38.9883 26.8408C39.1194 26.4296 39.2718 26.0256 39.449 25.6322Z"
              fill="#3C85F6"></path>
        <path d="M31.9522 26.022C32.4342 25.5931 33.299 25.8306 33.4337 26.4934C33.7881 27.3192 32.4909 28.2407 31.8706 27.5212C31.3709 27.1562 31.502 26.3693 31.9522 26.022Z"
              fill="#3D51F2"></path>
        <path d="M41.7969 25.6289C42.605 25.6927 43.6718 25.76 43.6045 26.8375C43.4343 26.9935 43.0941 27.3089 42.924 27.4648C42.5731 27.0998 42.2328 26.7276 41.9174 26.3307L41.7969 25.6289Z"
              fill="#388DFB"></path>
        <path d="M19.1392 27.1951C19.4015 26.6634 19.6921 26.1495 20.0111 25.6533C20.603 26.1141 21.7478 26.2488 21.8009 27.1596C21.7194 27.5105 21.3933 27.7055 21.1736 27.9607C21.1913 28.0493 21.2268 28.2265 21.248 28.3151C21.3544 28.7581 21.4678 29.2012 21.6414 29.6229L21.7584 29.9277C22.0668 30.0447 22.3751 30.1652 22.6799 30.2857C22.7402 30.4948 22.8536 30.9166 22.9138 31.1257C22.6693 31.4057 22.4212 31.6822 22.1766 31.9622C22.7402 32.033 23.6014 31.5936 23.8814 32.306C24.1118 32.8943 23.5306 33.4118 23.3711 33.9328C24.1437 33.2558 25.0723 33.2452 25.6146 34.149C25.3488 34.5991 25.09 35.0492 24.8313 35.5029C25.2708 35.2477 25.7032 34.9854 26.1321 34.7196C26.3766 34.7586 26.8622 34.8366 27.1032 34.8756C27.0642 35.4426 27.2131 36.148 26.685 36.5449C26.5964 36.5556 26.4156 36.5733 26.327 36.5839C26.1604 36.552 25.8308 36.4918 25.6642 36.4599C25.1822 36.6477 24.4946 37.3388 24.0516 36.7115C23.4207 36.2578 24.1189 35.5029 24.2607 34.9642C23.6121 35.0457 22.7047 35.6978 22.2617 34.9358C21.7832 34.4644 22.5169 33.8371 22.6835 33.3586C22.088 33.4189 20.9042 33.83 20.8688 32.8695C20.6809 32.3449 21.2622 31.9551 21.4607 31.5156C21.163 31.5652 20.5675 31.6644 20.2698 31.7141C19.8197 31.0725 19.8339 30.3672 20.3442 29.7718C19.9331 29.5343 19.529 29.2898 19.125 29.0452C19.4085 28.5986 19.6992 28.1591 20.0004 27.7232C19.7134 27.546 19.4263 27.3688 19.1392 27.1951Z"
              fill="#356CF6"></path>
        <path d="M42.9252 27.4647C42.5034 28.2445 40.9581 26.6602 41.9186 26.3306C42.234 26.7275 42.5743 27.0997 42.9252 27.4647Z"
              fill="#92B7DF"></path>
        <path d="M9.96736 28.1346C10.0382 27.5285 9.73344 26.6602 10.5025 26.405C11.1724 26.2809 11.9344 26.8409 11.6899 27.5746C11.4418 28.3437 10.5734 28.0566 9.96736 28.1346Z"
              fill="#3A9AF4"></path>
        <path d="M0.992772 28.3826C0.975051 27.5922 1.36138 26.9649 2.00644 26.5254C2.27226 26.894 2.72239 27.1669 2.86061 27.6206C2.93859 28.1522 2.39631 28.4641 2.13403 28.8469C1.85049 28.7299 1.27986 28.4996 0.992772 28.3826Z"
              fill="#3DB7E8"></path>
        <path d="M14.889 27.6878C15.2115 26.5891 16.4272 27.1526 16.8667 27.8437C17.1644 27.6736 17.4621 27.5 17.7598 27.3263C18.1887 27.7835 18.4687 28.3329 18.5148 28.9637C18.2667 29.102 17.774 29.3749 17.5259 29.5131C17.2034 29.2154 16.8809 28.9141 16.5619 28.6164C15.8034 29.0027 14.5948 28.7511 14.889 27.6878Z"
              fill="#3D78FA"></path>
        <path d="M37.8552 27.2732C39.0426 26.2206 39.8719 28.8965 38.4932 28.8717C37.5575 29.1553 37.1003 27.7163 37.8552 27.2732Z"
              fill="#397DF3"></path>
        <path d="M7.11328 29.0098C7.24088 28.4747 7.24796 27.5744 8.03125 27.6488C8.88897 27.4929 8.87479 28.4782 9.00948 29.0488C8.76492 29.1587 8.27581 29.3785 8.0348 29.4883C7.80442 29.3678 7.34366 29.1304 7.11328 29.0098Z"
              fill="#329DFF"></path>
        <path d="M40.481 27.7659C40.9276 27.7199 41.3742 27.727 41.8243 27.727C41.8562 28.1771 41.8881 28.6237 41.92 29.0738C41.6896 29.1801 41.2289 29.3963 40.9985 29.5026C40.7575 29.3786 40.2719 29.1269 40.0273 28.9994C40.1372 28.574 40.2861 28.1594 40.481 27.7659Z"
              fill="#3A86FF"></path>
        <path d="M22.1914 28.6342C22.3084 27.3547 23.843 27.7977 24.3322 28.6058C23.9281 29.0418 23.5879 29.6585 22.9074 29.6443C22.4537 29.4494 22.2127 29.1127 22.1914 28.6342Z"
              fill="#3650FD"></path>
        <path d="M49.9454 29.896C49.9419 29.1269 50.0482 28.2408 50.9449 28.0601C51.4269 28.2833 52.0224 28.6768 51.8132 29.3006C51.6786 30.2185 50.5763 29.8535 49.9454 29.896Z"
              fill="#46B5EE"></path>
        <path d="M21.25 28.3155C21.9163 27.9327 22.3416 29.5631 21.6434 29.6233C21.4697 29.2015 21.3563 28.7585 21.25 28.3155Z"
              fill="#3D62C6"></path>
        <path d="M36.002 28.56C36.4237 28.4856 36.8562 28.4962 37.285 28.4785L37.1468 29.0456C37.1468 29.1874 37.1503 29.4674 37.1539 29.6056L37.324 30.2223C36.647 30.2365 35.9913 30.0734 35.3711 29.8041C35.5554 29.3752 35.7645 28.9605 36.002 28.56Z"
              fill="#397EF8"></path>
        <path d="M47.5362 28.34C48.2061 28.3294 49.6025 28.3188 49.2481 29.3714C49.0921 30.2043 48.1387 29.8782 47.5397 29.9917C47.5291 29.4387 47.5291 28.8894 47.5362 28.34Z"
              fill="#3CADF9"></path>
        <path d="M24.4897 29.0809C25.0993 28.8363 25.3758 29.577 25.7196 29.9067C25.2624 29.8783 24.8087 29.8464 24.3515 29.8252C24.3905 29.9705 24.4649 30.2682 24.5003 30.4135C24.8548 30.5907 25.2056 30.7715 25.553 30.9593L25.6097 31.2039C25.0887 31.2464 24.5251 31.4236 24.0325 31.1543C23.7808 30.4915 23.4548 29.1872 24.4897 29.0809Z"
              fill="#415ACD"></path>
        <path d="M37.1484 29.0454C37.6978 29.2226 37.7013 29.4105 37.1555 29.6054C37.152 29.4672 37.1484 29.1872 37.1484 29.0454Z"
              fill="#7A95C4"></path>
        <path d="M9.09375 30.045C9.55451 29.7295 9.94792 29.1979 10.5575 29.1943C11.3408 29.4814 11.0679 30.3817 11.1246 31.0161C10.2669 31.1153 9.52615 30.8318 9.09375 30.045Z"
              fill="#3F9FF6"></path>
        <path d="M14.6691 30.059C14.6798 29.5132 15.3355 29.3041 15.7891 29.3927C16.2712 29.7294 16.5937 30.2398 16.9977 30.658L16.7815 29.8322C17.2175 29.8286 17.6499 29.8464 18.0823 29.8889C18.4154 30.215 18.4438 30.7183 18.5962 31.14C18.3268 31.2747 17.7952 31.5476 17.5258 31.6823C17.0332 31.3208 16.5512 30.9451 16.0656 30.5765L16.0266 31.3491C15.5375 31.1046 14.3005 30.8884 14.6691 30.059Z"
              fill="#3B83F0"></path>
        <path d="M33.9163 31.0231C33.133 30.4348 33.9553 29.134 34.8166 29.4956C35.1285 29.7897 35.4226 30.1016 35.6991 30.4312C35.2171 30.7325 34.4621 31.81 33.9163 31.0231Z"
              fill="#3A80E4"></path>
        <path d="M38.6009 29.4674C38.9837 28.8542 40.1179 29.3504 40.0789 30.038C40.3801 31.0233 38.7108 31.4274 38.3953 30.5342C38.1366 30.2046 38.367 29.7367 38.6009 29.4674Z"
              fill="#3783FC"></path>
        <path d="M24.3516 29.8252C24.8088 29.8465 25.2624 29.8784 25.7197 29.9067C26.5703 29.8996 27.6513 30.2044 27.3819 31.3103C27.2933 31.4768 27.1126 31.8029 27.0204 31.9695C26.5986 32.0439 26.1769 32.1219 25.7586 32.2034C25.7197 31.9518 25.6452 31.452 25.6098 31.2039L25.5531 30.9594C25.2057 30.7715 24.8549 30.5908 24.5004 30.4135C24.465 30.2682 24.3905 29.9705 24.3516 29.8252Z"
              fill="#305FFD"></path>
        <path d="M32.2432 30.0947C32.5976 30.1408 32.9414 30.2365 33.2711 30.3747C33.4199 30.8603 33.2533 31.3423 33.1009 31.8031C33.3668 32.2036 34.0579 32.5367 33.7389 33.0896C33.466 33.8658 32.5055 33.8375 32.0235 33.2598C32.0731 32.7919 32.1723 32.3312 32.268 31.8704C32.0731 31.7783 31.6832 31.594 31.4883 31.5018C31.6478 30.9879 31.6407 30.3109 32.2432 30.0947Z"
              fill="#3B70F5"></path>
        <path d="M27.5664 30.7787C27.733 30.6476 28.0662 30.3924 28.2327 30.2612C28.4596 30.3676 28.9132 30.5838 29.1401 30.6901C29.2748 31.3989 29.5937 32.0795 29.6115 32.8096C29.3102 33.164 28.9593 33.6212 28.4277 33.4121C27.9067 33.047 27.9669 32.3311 27.7862 31.7888C27.7401 31.5726 27.6444 31.1402 27.5983 30.924L27.5664 30.7787Z"
              fill="#3567F6"></path>
        <path d="M29.7444 31.7783C29.2198 31.0942 29.8649 30.194 30.6836 30.4563C31.4846 30.6264 31.1621 31.5337 31.2578 32.1185C30.9813 31.7712 30.7013 31.4345 30.4249 31.0942C30.2937 31.2714 30.0315 31.6223 29.9003 31.7995L29.7444 31.7783Z"
              fill="#4771CF"></path>
        <path d="M37.2359 30.4985C38.0121 30.4347 38.3807 31.6681 37.764 32.1111C37.1509 32.781 35.9883 31.902 36.3144 31.1187C36.481 30.7005 36.7858 30.4949 37.2359 30.4985Z"
              fill="#3780FA"></path>
        <path d="M7.26437 30.9879C7.66133 30.9844 8.06184 30.9844 8.46234 30.9844C8.55095 31.197 8.72817 31.6188 8.81677 31.8315C8.73525 32.0477 8.57222 32.4872 8.4907 32.7034C8.07956 32.6998 7.66488 32.6963 7.2502 32.6927C7.1864 32.473 7.05172 32.0335 6.98438 31.8173C7.05526 31.6082 7.19349 31.1935 7.26437 30.9879Z"
              fill="#3F9FEF"></path>
        <path d="M27.3811 31.3102L27.6008 30.9238C27.6469 31.14 27.7426 31.5724 27.7887 31.7886C27.4662 32.1253 27.1436 32.4621 26.8211 32.8023C26.4631 32.6038 26.1087 32.4053 25.7578 32.2033C26.176 32.1218 26.5978 32.0438 27.0196 31.9694C27.1117 31.8028 27.2925 31.4767 27.3811 31.3102Z"
              fill="#5C74D6"></path>
        <path d="M29.9023 31.7996C30.0335 31.6223 30.2958 31.2715 30.4269 31.0942C30.7034 31.4345 30.9834 31.7712 31.2598 32.1185C31.6036 32.4552 31.795 33.1783 31.3449 33.5044C30.9479 34.0183 30.3489 33.6107 29.9272 33.3909C29.9201 32.8593 29.9094 32.3277 29.9023 31.7996Z"
              fill="#3C70FF"></path>
        <path d="M45.0432 31.2216C46.0073 31.094 46.7835 31.6114 47.3895 32.3061C47.627 31.6256 48.5131 31.3846 48.9561 31.98C49.0447 32.4727 49.0022 32.9724 48.9986 33.4722C48.0417 33.614 47.2867 33.0965 46.6736 32.4231C46.4964 32.5826 46.1455 32.9015 45.9683 33.061C44.8341 33.1248 45.0326 31.9765 45.0432 31.2216Z"
              fill="#44A7ED"></path>
        <path d="M33.033 44.13C33.4583 44.1087 33.8836 44.091 34.3125 44.0732C34.4578 44.3143 34.7484 44.7963 34.8973 45.0337C34.5074 45.7568 33.7631 45.8985 33.0117 45.8773C33.0117 45.2925 33.0188 44.7112 33.033 44.13Z"
              fill="#44A7ED"></path>
        <path d="M35.5979 31.8774C36.0587 31.9519 35.9666 32.6714 35.6866 32.9124C35.4455 33.1711 34.7012 33.2987 34.6445 32.8273C34.7828 32.721 35.0628 32.5154 35.201 32.4126C35.3002 32.2779 35.4987 32.0121 35.5979 31.8774Z"
              fill="#081C53"></path>
        <path d="M34.6213 31.4341C34.9474 31.427 35.5995 31.4129 35.9256 31.4058L35.5995 31.8772C35.5003 32.0118 35.3018 32.2777 35.2025 32.4123C35.0643 32.5151 34.7843 32.7207 34.6461 32.827L34.1641 33.1566C34.2704 32.5789 34.0825 31.8453 34.6213 31.4341Z"
              fill="#3482FA"></path>
        <path d="M14.7578 32.1785C15.0626 32.0332 15.6687 31.7497 15.9735 31.6079C16.6398 32.0935 16.9305 33.4899 15.8353 33.536C14.9598 33.7522 14.9067 32.7598 14.7578 32.1785Z"
              fill="#3A88F6"></path>
        <path d="M10.2165 34.1705C9.24887 34.1386 9.26659 32.3948 10.2377 32.3806C10.8261 32.3097 11.1557 32.9265 11.5846 33.21C11.1628 33.5113 10.8615 34.3973 10.2165 34.1705Z"
              fill="#3EA4F2"></path>
        <path d="M17.1385 32.8698C17.1172 31.9802 18.3293 31.7676 18.7972 32.4303C18.8539 32.8805 18.8433 33.3412 18.8503 33.7984C18.184 33.7949 16.9612 33.8906 17.1385 32.8698Z"
              fill="#3B85FF"></path>
        <path d="M42.4914 34.0499C42.7892 33.0221 43.9269 33.6246 44.4195 34.1492C44.2778 34.4398 43.9942 35.0246 43.856 35.3152C43.1117 35.3152 42.1299 34.9927 42.4914 34.0499Z"
              fill="#3DA7F7"></path>
        <path d="M15.1328 34.9358C15.59 34.7267 15.948 34.0001 16.5293 34.2553C17.4791 34.2589 17.4366 35.9849 16.5115 35.9708C15.8133 36.187 15.5475 35.2938 15.1328 34.9358Z"
              fill="#428CEC"></path>
        <path d="M18.0684 34.3975C18.5752 34.4045 19.0856 34.4152 19.5924 34.4294C19.6101 34.8972 19.6279 35.3651 19.6385 35.8329C19.3656 35.9463 18.8162 36.1731 18.5398 36.2866C18.1038 35.7372 17.9053 35.0957 18.0684 34.3975Z"
              fill="#3B86EB"></path>
        <path d="M7.44141 34.9324C7.71432 34.8013 8.25305 34.5354 8.52241 34.4043C8.78115 34.8402 9.28798 35.1982 9.25254 35.7582C8.9371 36.4813 8.12545 36.3182 7.49457 36.3253C7.4733 35.861 7.45913 35.3967 7.44141 34.9324Z"
              fill="#41A6F5"></path>
        <path d="M44.3305 34.9824C44.724 34.3125 45.5073 34.4791 46.1559 34.4224C46.0743 35.0072 46.3579 35.8472 45.6809 36.1591C44.965 36.4993 44.2242 35.7089 44.3305 34.9824Z"
              fill="#44A9EE"></path>
        <path d="M39.9963 35.425C40.4252 34.7622 41.7756 35.2549 41.5842 36.0807C41.687 36.9632 40.7123 36.8711 40.1346 37.0589C40.046 36.5379 39.5498 35.9106 39.9963 35.425Z"
              fill="#419FF5"></path>
        <path d="M27.4712 37.0876C27.0458 36.035 28.2509 35.6167 29.0661 35.8436C29.1157 36.074 29.2114 36.5383 29.261 36.7686C29.1901 36.9423 29.0413 37.2861 28.9704 37.4598C29.3142 37.8603 29.658 38.2608 29.9947 38.6719C29.5304 38.9271 29.1689 39.5828 28.5593 39.4233C27.7547 39.1575 28.102 38.2501 28.0985 37.6334C27.9426 37.4952 27.6307 37.2258 27.4712 37.0876Z"
              fill="#3A82EA"></path>
        <path d="M10.0781 36.7509C10.1738 36.5383 10.3652 36.113 10.4609 35.9003C10.7515 35.8932 11.3399 35.872 11.6305 35.8613C11.7439 36.0917 11.9708 36.5489 12.0806 36.7758C11.9672 36.9849 11.7439 37.4031 11.6305 37.6122C11.347 37.6016 10.7834 37.5839 10.5034 37.5768C10.3971 37.3712 10.1845 36.9601 10.0781 36.7509Z"
              fill="#3DAAF5"></path>
        <path d="M37.18 37.1298C37.0417 36.2792 38.1334 36.2792 38.6969 36.1445C38.7217 36.6443 39.2215 37.3 38.7253 37.704C38.2858 38.4093 37.0913 37.9202 37.18 37.1298Z"
              fill="#3E9BFB"></path>
        <path d="M16.8748 36.5132C17.3037 36.6514 17.7822 36.701 18.1401 36.9917C18.1862 37.4453 18.1685 37.9061 18.1649 38.3633C17.7219 38.3633 17.2789 38.3633 16.8323 38.3598C16.7295 38.1436 16.5168 37.7147 16.4141 37.4985C16.5275 37.2539 16.7614 36.7613 16.8748 36.5132Z"
              fill="#3E95F2"></path>
        <path d="M19.8433 36.5347C21.1193 36.1165 21.4312 38.3706 20.102 38.3068C19.0884 38.4947 18.8367 36.6339 19.8433 36.5347Z"
              fill="#3A96F7"></path>
        <path d="M29.7646 36.5308C30.6117 36.4209 31.3241 36.7293 31.7317 37.5055C31.2461 37.8599 30.7499 38.1931 30.2466 38.5227C29.8248 37.9344 29.7291 37.2326 29.7646 36.5308Z"
              fill="#3784EC"></path>
        <path d="M41.8592 38.0194C40.9979 37.5019 41.7387 36.6513 42.2703 36.2012C42.5503 36.3465 43.1032 36.6336 43.3797 36.7789C43.4329 37.5976 42.7453 38.6609 41.8592 38.0194Z"
              fill="#469FF0"></path>
        <path d="M32.1095 37.4951C32.2052 36.7047 33.0771 36.9918 33.6265 36.9067C33.6903 37.1229 33.8179 37.5589 33.8817 37.7751C33.8143 37.9452 33.6832 38.289 33.6159 38.4627C34.0483 38.6966 34.4913 38.9199 34.8635 39.2495C34.8103 39.8627 34.3212 40.2738 33.9561 40.7168C33.2898 40.2596 32.8219 39.6536 33.1055 38.8242C32.6873 38.5123 31.6878 38.165 32.1095 37.4951Z"
              fill="#3A8EF3"></path>
        <path d="M34.4653 37.4386C34.8445 36.7191 35.6774 36.8857 36.3437 36.8715C36.3366 37.5875 36.1559 38.2751 35.7377 38.8599C35.2521 38.4664 34.444 38.2042 34.4653 37.4386Z"
              fill="#4292F3"></path>
        <path d="M38.8616 37.8107C39.5492 37.4456 40.0561 38.0304 40.5594 38.4061C40.4247 38.6968 40.1482 39.2745 40.01 39.5616C39.6024 39.4907 39.1877 39.4304 38.7908 39.3206C38.5356 38.835 38.5639 38.275 38.8616 37.8107Z"
              fill="#3B9EF2"></path>
        <path d="M8.58941 38.6787C9.19194 38.6858 9.79446 38.7071 10.397 38.739C10.3261 39.4159 10.1099 40.061 9.65978 40.582C9.38333 40.4509 8.82687 40.185 8.54688 40.0539C8.56105 39.5931 8.57523 39.1359 8.58941 38.6787Z"
              fill="#3EAAF6"></path>
        <path d="M20.8839 38.6822C21.4545 38.7282 22.3867 38.4128 22.6525 39.1146C22.9999 39.7667 22.1315 40.1708 21.8621 40.6563C21.1533 40.2062 20.8343 39.5044 20.8839 38.6822Z"
              fill="#3E93F0"></path>
        <path d="M30.5251 38.406C30.8441 38.4025 31.482 38.3989 31.801 38.3989C31.9428 38.6435 32.2299 39.129 32.3752 39.3736C31.957 39.7316 31.5317 40.0754 31.0993 40.4156C30.5782 39.8556 30.3939 39.1539 30.5251 38.406Z"
              fill="#378CF5"></path>
        <path d="M35.822 40.21C35.7475 39.416 35.8326 38.6079 36.6832 38.2783C36.9171 38.4449 37.385 38.7816 37.6189 38.9482C37.5055 39.3381 37.3992 39.7279 37.2326 40.1001C36.7647 40.1781 36.2933 40.1887 35.822 40.21Z"
              fill="#3C95F2"></path>
        <path d="M18.094 39.0117C18.5973 39.118 19.3593 38.8203 19.6747 39.352C20.2241 39.9722 19.3522 40.5393 19.0722 41.0355C18.2606 40.6173 17.9345 39.8942 18.094 39.0117Z"
              fill="#3E92ED"></path>
        <path d="M12.1424 39.5118C12.8229 39.285 13.2234 40.0328 13.6877 40.3695C13.2234 41.0749 12.5004 41.3726 11.6781 41.3336C11.7348 40.724 11.4548 39.8556 12.1424 39.5118Z"
              fill="#3DB2F7"></path>
        <path d="M23.0352 41.7799C23.1344 41.2057 23.1911 40.3622 23.9886 40.4083C24.7648 40.3197 24.8463 41.2447 24.9916 41.7905C24.74 41.9111 24.2331 42.1485 23.9815 42.269C23.744 42.145 23.2726 41.904 23.0352 41.7799Z"
              fill="#3D9FFD"></path>
        <path d="M20.5776 41.1987C21.609 40.6706 22.5766 42.2513 21.4707 42.8184C20.3685 43.5592 19.5993 41.585 20.5776 41.1987Z"
              fill="#3B9CEE"></path>
        <path d="M25.9068 41.8829C26.7823 41.7447 27.484 42.1168 27.9377 42.8753C27.4557 43.1482 27.0516 43.733 26.4314 43.6479C25.6374 43.3998 25.9812 42.4996 25.9068 41.8829Z"
              fill="#41A2F3"></path>
        <path d="M23.1211 43.0384C23.589 42.9711 24.0675 42.9746 24.5389 42.9604C24.4644 43.5701 24.7444 44.4207 23.993 44.7007C23.0219 45.1154 22.3662 43.6232 23.1211 43.0384Z"
              fill="#40A0F6"></path>
        <path d="M10.7718 43.7296C11.1369 43.3823 11.6863 43.3893 12.1399 43.2334C12.3313 43.8643 12.3703 44.5164 12.2002 45.1579C11.6934 45.1154 11.1865 45.0729 10.6797 45.0304C10.701 44.5944 10.708 44.1585 10.7718 43.7296Z"
              fill="#3CABE2"></path>
        <path d="M29.0898 43.3077C29.7172 43.3786 30.6139 43.0454 30.8868 43.8358C31.2554 44.814 29.6959 45.5867 29.2352 44.6262C29.1359 44.1938 29.1288 43.7472 29.0898 43.3077Z"
              fill="#3EA7F6"></path>
        <path d="M13.6797 44.9875C14.0944 44.2184 14.8528 43.9703 15.6751 44.0057C15.6822 44.6295 15.6751 45.2533 15.6574 45.8806C14.8918 45.8558 14.2007 45.5581 13.6797 44.9875Z"
              fill="#40AFF7"></path>
        <path d="M37.7778 44.3462C38.1854 44.4809 38.6958 44.4419 39.0112 44.7786C39.1282 45.2429 39.0927 45.7249 39.1105 46.1999C38.554 46.1857 37.9976 46.1609 37.4411 46.1361C37.4021 45.9305 37.3241 45.5229 37.2852 45.3209C37.4482 44.9948 37.6148 44.6723 37.7778 44.3462Z"
              fill="#48AFEF"></path>
        <path d="M42.5469 44.3957C43.0112 44.3886 43.4755 44.3815 43.9362 44.3779C44.0355 44.6012 44.2304 45.0549 44.3261 45.2782C44.2162 45.4944 43.9965 45.9197 43.8866 46.1359C43.4578 46.1324 43.0289 46.1288 42.6 46.1253C42.5752 45.5511 42.5575 44.9734 42.5469 44.3957Z"
              fill="#3FB5EF"></path>
        <path d="M26.4094 44.8459C26.8489 44.7537 27.3025 44.7502 27.7527 44.7183C27.7349 45.2003 27.7704 45.6929 27.6605 46.1714C27.3025 46.5188 26.7532 46.4798 26.3066 46.618C26.2428 46.019 25.6615 45.2251 26.4094 44.8459Z"
              fill="#3CA4E4"></path>
        <path d="M29.8008 46.1925C30.4388 46.1713 31.0767 46.1642 31.7182 46.1748C31.6367 46.8305 31.6474 47.9576 30.6904 47.8654C29.8646 47.7095 29.9071 46.8376 29.8008 46.1925Z"
              fill="#35ABFA"></path>
        <path d="M34.4102 48.6738C34.5129 48.0748 34.2896 47.1888 35.0481 46.9761C35.998 46.611 36.5615 47.8019 36.0972 48.5462C35.5443 48.6667 34.9737 48.6561 34.4102 48.6738Z"
              fill="#48A9E4"></path>
        <path d="M39.7383 47.7204C40.0041 47.5822 40.5322 47.3057 40.798 47.1675C41.1985 47.646 41.4785 48.1989 41.5813 48.8156C41.3474 48.9361 40.876 49.1806 40.6385 49.3011C40.4223 49.2054 39.9864 49.0211 39.7666 48.9255C39.756 48.5249 39.7454 48.1209 39.7383 47.7204Z"
              fill="#39BCF1"></path>
        <path d="M13.1937 48.2202C13.6757 48.245 14.1578 48.2521 14.6327 48.3478C14.9056 48.6881 14.8985 49.1524 15.0084 49.5564C14.7816 49.6769 14.3314 49.9179 14.1046 50.0384C13.853 49.9498 13.3497 49.7655 13.1016 49.6769C13.1299 49.1914 13.1618 48.7058 13.1937 48.2202Z"
              fill="#40BCE7"></path>
        <path d="M16.9492 50.1197C17.0449 49.5066 16.8216 48.617 17.5978 48.3901C18.1117 48.4043 18.4697 48.8296 18.8879 49.0671C18.7745 49.3365 18.5441 49.8787 18.4307 50.1516C17.9381 50.1446 17.4419 50.1339 16.9492 50.1197Z"
              fill="#39BCF6"></path>
    </mask>
    <g mask="url(#mask0_477_8465)">
        <g style="mix-blend-mode: screen;">
            <rect x="-21.9766" y="-10.2783" width="188.556" height="74.4301"
                  fill="url(#paint0_linear_477_8465)"></rect>
        </g>
    </g>
    <defs>
        <linearGradient id="paint0_linear_477_8465" x1="45.8619" y1="-72.2041" x2="142.353"
                        y2="83.2435" gradientUnits="userSpaceOnUse">
            <stop stop-color="white"></stop>
            <stop offset="1" stop-color="#0055FF"></stop>
        </linearGradient>
    </defs>
</svg>